<?xml version="1.0" encoding="UTF-8" standalone="no"?>
<!-- Created with Inkscape (http://www.inkscape.org/) -->
<svg
   xmlns:svg="http://www.w3.org/2000/svg"
   xmlns="http://www.w3.org/2000/svg"
   version="1.0"
   width="497.42349"
   height="800"
   id="svg2">
  <defs
     id="defs4" />
  <g
     transform="translate(-123.3355,-126.18109)"
     id="layer1">
    <g
       id="g2192">
      <path
         d="M 59.583313 271.30252 A 102.97552 205.95105 0 1 1  -146.36772,271.30252 A 102.97552 205.95105 0 1 1  59.583313 271.30252 z"
         transform="matrix(2.366862,0,0,1.9180145,474.7506,5.8189123)"
         style="fill:#ffffff;fill-opacity:1;stroke:#000000;stroke-width:4.67734718;stroke-linecap:butt;stroke-linejoin:miter;stroke-miterlimit:4;stroke-dasharray:none;stroke-opacity:1"
         id="path2242" />
      <path
         d="M 59.583313 271.30252 A 102.97552 205.95105 0 1 1  -146.36772,271.30252 A 102.97552 205.95105 0 1 1  59.583313 271.30252 z"
         transform="matrix(2.1892091,0,0,1.8294431,467.04187,29.848559)"
         style="fill:#ffffff;fill-opacity:1;stroke:#000000;stroke-width:4.67734718;stroke-linecap:butt;stroke-linejoin:miter;stroke-miterlimit:4;stroke-dasharray:none;stroke-opacity:1"
         id="path5174" />
      <path
         d="M 597.4822,526.18107 C 597.4822,734.16129 496.48736,902.95678 372.04725,902.95678 C 326.46956,902.95678 284.03701,880.31322 248.55985,841.39428 C 368.69126,528.34844 368.85684,527.89837 491.37201,206.50954 C 505.91918,221.71694 519.35551,239.62059 531.42977,259.80065 C 572.23349,327.99705 597.4822,422.19098 597.4822,526.18107 z "
         style="fill:#000000;fill-opacity:1;stroke:none;stroke-width:0.99595326;stroke-linecap:butt;stroke-linejoin:miter;stroke-miterlimit:4;stroke-dasharray:none;stroke-opacity:1"
         id="path7165" />
      <path
         d="M 247.50808,611.30734 C 245.76144,608.81368 244.33239,603.14656 244.33239,598.71375 C 244.33239,590.00805 255.23341,544.54016 263.35533,519.3695 C 268.56878,503.21248 268.4263,500.02979 262.48959,500.02979 C 259.23667,500.02979 219.28004,541.91305 201.09385,564.38598 C 193.11057,574.25098 189.2307,575.94455 187.1336,570.47961 C 183.31032,560.51628 197.18253,534.63753 226.38992,497.24662 C 244.63341,473.89152 248.31872,468.22023 248.31872,463.50062 C 248.31872,455.62662 235.992,458.30227 206.8404,472.50391 C 195.53784,478.01015 185.69324,481.9182 184.96353,481.18852 C 182.89393,479.11892 193.9506,459.49002 201.06166,452.60955 C 204.58016,449.20512 216.87663,441.31518 228.38713,435.07636 C 239.89764,428.8375 258.27883,417.98754 269.23425,410.96531 C 280.18968,403.94309 293.61972,396.66874 299.07879,394.8001 C 318.95396,387.99697 328.83486,381.86008 332.72113,373.90546 C 338.41338,362.25393 336.62154,360.53119 318.64006,360.36696 C 310.10992,360.28904 295.12774,359.52555 285.34663,358.67026 C 268.78334,357.22197 267.17584,356.68231 261.92701,350.80785 C 251.92911,339.61825 252.25701,339.52023 297.43104,340.19519 C 322.09379,340.56371 339.34598,340.03923 340.49922,338.88588 C 344.72632,334.65887 321.73641,324.88039 296.74499,320.27554 C 288.8748,318.82541 285.0626,317.33917 286.64199,316.33681 C 290.9648,313.59329 316.81372,314.50498 327.87994,317.79128 C 333.66828,319.51022 338.77653,320.54407 339.23197,320.08872 C 341.146,318.17472 331.68946,309.13389 322.59747,304.1854 C 307.79586,296.12937 290.83562,292.21404 282.56467,294.94369 C 278.09718,296.41811 270.73635,296.61137 260.5881,295.52072 C 252.19559,294.61875 243.58288,294.09353 241.44879,294.35356 C 234.99862,295.13944 230.38028,300.83294 230.38028,307.99881 C 230.38028,315.66436 229.97978,315.83212 222.38671,311.3468 C 215.04076,307.00743 212.44184,300.8992 212.44184,287.97342 C 212.44184,277.56536 216.16758,270.81644 221.91338,270.81644 C 223.11324,270.81644 226.82017,268.52333 230.15099,265.72063 C 233.48179,262.91791 239.42173,260.10311 243.35078,259.46552 C 248.44955,258.63811 251.29557,256.75723 253.29276,252.89512 L 256.09096,247.48399 L 300.53896,245.87699 C 365.69056,243.52144 372.25731,243.76042 382.81487,248.87123 C 398.29355,256.36438 412.70548,278.34167 415.0343,298.00371 C 415.96849,305.89256 415.06439,311.34517 410.75757,323.79402 C 407.20656,334.05805 404.75438,346.42365 403.74743,359.1426 C 402.89556,369.90182 401.68032,379.22309 401.04691,379.85655 C 399.40115,381.50232 393.8195,376.46792 393.8195,373.33773 C 393.8195,366.69096 389.34187,369.07235 385.42572,377.80199 C 381.98971,385.46118 380.93673,392.39024 380.24789,411.87565 C 379.48371,433.4937 379.03066,436.04252 376.34927,433.81705 C 374.68059,432.43217 371.74307,427.7039 369.82166,423.3098 L 366.32817,415.32051 L 362.63366,423.29315 C 359.67143,429.68556 358.93913,436.10476 358.93913,455.6795 C 358.93913,469.10703 358.68323,480.09433 358.37069,480.09571 C 358.05796,480.09709 355.58784,478.64722 352.88113,476.8738 C 347.9933,473.67112 347.93231,473.71211 343.83837,482.96744 C 337.46324,497.37922 330.78158,526.25632 326.97723,555.83826 C 325.07397,570.63746 322.86135,583.47841 322.0603,584.37372 C 321.25926,585.26901 318.01778,583.77203 314.85703,581.04707 L 309.11016,576.09264 L 309.13348,537.98481 C 309.15639,500.9343 309.04578,499.89292 305.14715,500.45168 C 300.01417,501.18735 296.62401,508.42915 276.41856,561.81774 C 254.67645,619.26683 253.95187,620.50717 247.50808,611.30734 z M 285.9666,511.62519 C 297.05114,484.56742 306.12041,461.41211 306.12041,460.16895 C 306.12041,458.88833 303.79918,458.18202 300.7648,458.53935 C 295.61088,459.14628 294.82737,461.00743 279.94112,508.00242 C 256.20303,582.94231 256.64242,583.20648 285.9666,511.62519 z M 250.1281,495.34919 C 288.14192,452.95792 295.16223,443.1423 286.45345,444.56009 C 283.93385,444.97028 267.64333,463.97553 243.17822,495.04689 C 188.63959,564.31244 188.2995,564.29764 250.1281,495.34919 z M 337.91908,451.90892 C 338.03648,447.71829 332.77952,445.67389 328.19505,448.1274 C 324.23764,450.24531 322.94985,459.95241 321.17675,501.02636 L 320.14449,524.94428 L 328.98593,490.064 C 333.84865,470.87983 337.86865,453.71003 337.91908,451.90892 z M 251.4759,445.41228 C 275.50104,435.65303 296.76254,426.17552 298.7236,424.35112 C 302.9792,420.3921 301.36474,414.32394 296.05575,414.32394 C 292.90577,414.32394 207.59368,460.17652 204.56968,463.49484 C 203.11639,465.08958 201.51261,465.70784 251.4759,445.41228 z M 352.69476,408.3872 C 358.18472,400.0912 359.59728,393.50851 355.6018,394.84036 C 353.60625,395.50556 345.11239,416.31709 346.83667,416.31709 C 347.17232,416.31709 349.80848,412.74865 352.69476,408.3872 z M 373.00833,372.2821 C 378.07056,364.26285 378.27307,357.3859 373.39898,359.0106 C 371.22564,359.73506 365.14066,380.44023 367.10112,380.44023 C 367.51758,380.44023 370.17585,376.76907 373.00833,372.2821 z M 394.50357,318.86994 C 394.88864,312.99588 390.76997,311.13194 388.24962,316.03969 C 387.23012,318.02474 385.89271,325.47884 385.27743,332.60438 L 384.15886,345.55992 L 389.17505,334.59754 C 391.93398,328.56823 394.33175,321.49082 394.50357,318.86994 z M 226.39397,302.57596 C 226.39397,290.85226 237.14077,285.50104 254.19144,288.73462 C 262.10325,290.23508 265.58483,290.13994 267.72368,288.36485 C 270.20724,286.30369 270.11492,285.61766 267.05276,283.37855 C 265.09988,281.95059 261.8979,280.78224 259.93722,280.78224 C 257.78488,280.78224 254.76074,277.6232 252.30503,272.8096 C 247.84616,264.06948 242.32441,262.42875 236.15603,268.01107 C 234.22698,269.75684 229.67176,272.67183 226.03331,274.48884 C 219.81108,277.59615 219.38208,278.48365 218.81513,289.42133 C 218.24647,300.39186 220.37336,306.69331 224.64484,306.69331 C 225.60687,306.69331 226.39397,304.84051 226.39397,302.57596 z M 238.31296,277.74432 C 236.92626,276.07348 236.30038,274.19774 236.92211,273.57603 C 238.93396,271.56418 246.32555,274.98412 246.32555,277.92682 C 246.32555,281.69024 241.49649,281.58028 238.31296,277.74432 z M 345.16959,284.56679 C 348.94345,280.39656 348.93428,280.38046 342.98708,280.79167 C 333.31608,281.46035 332.03148,280.99178 332.03148,276.79592 C 332.03148,272.35596 328.1251,271.5336 324.45748,275.20139 C 321.39599,278.26271 321.39599,283.30177 324.45748,286.36308 C 328.44938,290.35514 340.90902,289.27457 345.16959,284.56679 z M 354.32219,273.76875 C 350.68666,272.18963 345.40837,269.0855 342.59264,266.8707 C 335.91954,261.62158 323.88703,261.51381 319.22863,266.66142 C 315.87075,270.37171 315.99274,270.44962 323.57052,269.43325 C 329.16074,268.68344 333.57698,269.55244 339.17378,272.50359 C 343.46725,274.76748 350.11941,276.62427 353.95625,276.62981 L 360.93231,276.6399 L 354.32219,273.76875 z "
         style="fill:#000000"
         id="path7163" />
      <path
         d="M 354.95394,82.661603 A 33.252014,33.252014 0 1 1 356.65803,45.633486"
         transform="matrix(3.1831087,0,0,3.1829136,-579.70473,452.77107)"
         style="fill:none;fill-opacity:1;stroke:#ffffff;stroke-width:3.75712013;stroke-linecap:butt;stroke-linejoin:miter;stroke-miterlimit:4;stroke-dasharray:none;stroke-opacity:1"
         id="path13015" />
      <path
         d="M 372.42795,771.52685 L 385.58778,764.48519 C 388.05041,772.79668 392.30234,779.24192 398.34358,783.8209 C 404.38475,788.39992 411.63804,790.68942 420.10347,790.68941 C 430.80058,790.68942 439.15052,787.53414 445.15332,781.22357 C 451.15597,774.91303 454.15733,766.1783 454.15742,755.01934 C 454.15733,746.86184 452.13718,740.08954 448.09697,734.70241 C 444.05659,729.31542 435.37958,723.08182 422.0659,716.0016 C 405.05813,706.9976 393.7453,699.07093 388.12739,692.22156 C 382.50944,685.3724 379.70047,677.1379 379.70049,667.51802 C 379.70047,655.5127 383.76,645.73904 391.8791,638.19699 C 399.99814,630.65527 410.52215,626.88433 423.45115,626.88416 C 431.91647,626.88433 439.2852,628.6736 445.55735,632.25198 C 451.82935,635.8307 456.92782,641.19852 460.85277,648.35546 L 448.96275,655.51256 C 446.50001,650.66435 443.01766,646.97037 438.51569,644.4306 C 434.01357,641.89114 428.68423,640.62133 422.52765,640.62117 C 414.21613,640.62133 407.59774,643.06475 402.67247,647.95143 C 397.74712,652.83841 395.28446,659.43756 395.2845,667.74889 C 395.28446,679.60056 405.05813,690.64403 424.60552,700.87934 C 428.14553,702.72643 430.83906,704.15015 432.68612,705.15051 C 447.07719,713.07728 456.69694,720.56145 461.54539,727.60303 C 466.39365,734.64476 468.81783,743.78352 468.81793,755.01934 C 468.81783,770.18011 464.39274,782.2048 455.54266,791.09344 C 446.6924,799.9821 434.64848,804.42642 419.41085,804.42642 C 408.32884,804.42642 398.84377,801.67517 390.9556,796.17267 C 383.06738,790.67018 376.8915,782.45491 372.42795,771.52685 L 372.42795,771.52685 z "
         transform="scale(1.0978393,0.9108801)"
         style="font-size:236.41519165px;font-style:normal;font-weight:bold;fill:#ffffff;fill-opacity:1;stroke:none;stroke-width:1px;stroke-linecap:butt;stroke-linejoin:miter;stroke-opacity:1;font-family:Futura Lt BT"
         id="text14960" />
      <path
         d="M 424.25184,776.77863 L 424.25184,636.45363 L 493.74339,636.45363 L 493.74339,648.43493 L 436.99995,648.43493 L 436.99995,692.33442 L 491.63468,692.33442 L 491.63468,704.31572 L 436.99995,704.31572 L 436.99995,776.77863 L 424.25184,776.77863 z "
         transform="scale(1.0527765,0.9498692)"
         style="font-size:196.30163574px;font-style:normal;font-weight:bold;fill:#ffffff;fill-opacity:1;stroke:none;stroke-width:1px;stroke-linecap:butt;stroke-linejoin:miter;stroke-opacity:1;font-family:Futura Lt BT"
         id="text14964" />
    </g>
  </g>
</svg>
