<?xml version="1.0" encoding="utf-8"?>
<!-- Generator: Adobe Illustrator 13.0.0, SVG Export Plug-In . SVG Version: 6.00 Build 14948)  -->
<!DOCTYPE svg PUBLIC "-//W3C//DTD SVG 1.0//EN" "http://www.w3.org/TR/2001/REC-SVG-20010904/DTD/svg10.dtd">
<svg version="1.0" id="Ebene_1" xmlns="http://www.w3.org/2000/svg" xmlns:xlink="http://www.w3.org/1999/xlink" x="0px" y="0px"
	 width="355.663px" height="396.2px" viewBox="0 0 355.663 396.2" enable-background="new 0 0 355.663 396.2" xml:space="preserve">
<path fill="#E32219" d="M177.903,396.2c-51.422-39.062-88.085-77.87-114.207-115.648C37.26,242.32,22.165,204.997,12.401,169.831
	C3.391,137.377,1.226,100.616,0.375,66.21C-0.226,41.894,0.065,19.629,0.108,0l0,0l355.555,0.014l0,0
	c-0.314,19.629,0.193,41.88-0.234,66.197c-0.604,34.411-3.015,71.167-12.026,103.62c-9.764,35.166-24.859,72.49-51.295,110.722
	C265.987,318.33,229.325,357.139,177.903,396.2L177.903,396.2z"/>
<path fill="#FFFFFF" d="M7.496,7.424c1.511,94.08-20.09,235.135,170.407,379.843C368.398,242.577,346.798,101.522,348.308,7.442l0,0
	L7.496,7.424L7.496,7.424z"/>
<path fill="#E32219" d="M250.034,199.331l4.873-0.587l0,0c0.157,1.239,0.573,2.189,1.258,2.85c0.679,0.656,1.504,0.981,2.473,0.981
	c1.038,0,1.914-0.39,2.625-1.179c0.711-0.789,1.064-1.854,1.064-3.193c0-1.266-0.339-2.266-1.019-3.01
	c-0.683-0.739-1.514-1.11-2.491-1.11c-0.646,0-1.417,0.124-2.313,0.376l0,0l0.555-4.106l0,0c1.362,0.037,2.399-0.257,3.12-0.885
	c0.716-0.629,1.073-1.46,1.073-2.501c0-0.886-0.261-1.587-0.789-2.116c-0.523-0.523-1.225-0.788-2.097-0.788
	c-0.857,0-1.592,0.297-2.202,0.898c-0.61,0.597-0.982,1.468-1.111,2.616l0,0l-4.644-0.79l0,0c0.322-1.587,0.808-2.858,1.459-3.808
	c0.652-0.95,1.561-1.698,2.726-2.24c1.166-0.546,2.469-0.817,3.914-0.817c2.479,0,4.46,0.789,5.951,2.368
	c1.235,1.289,1.85,2.749,1.85,4.373c0,2.303-1.262,4.144-3.786,5.52c1.51,0.322,2.712,1.046,3.617,2.17
	c0.898,1.12,1.348,2.478,1.348,4.065c0,2.308-0.84,4.272-2.523,5.897c-1.685,1.628-3.786,2.441-6.291,2.441
	c-2.382,0-4.35-0.684-5.915-2.056C251.191,203.333,250.282,201.543,250.034,199.331L250.034,199.331z M241.307,189.224
	c0-1.625-0.376-2.887-1.119-3.782c-0.748-0.895-1.611-1.344-2.593-1.344c-0.932,0-1.707,0.367-2.321,1.101
	c-0.615,0.738-0.923,1.941-0.923,3.611c0,1.698,0.335,2.946,1.005,3.74c0.67,0.793,1.505,1.193,2.51,1.193
	c0.968,0,1.781-0.386,2.445-1.147C240.972,191.829,241.307,190.705,241.307,189.224L241.307,189.224z M229.905,200.231l4.877-0.538
	l0,0c0.119,0.992,0.432,1.726,0.932,2.204c0.501,0.477,1.166,0.716,1.992,0.716c1.037,0,1.922-0.478,2.652-1.433
	c0.725-0.959,1.193-2.941,1.395-5.951c-1.267,1.469-2.85,2.203-4.75,2.203c-2.064,0-3.849-0.793-5.35-2.391
	c-1.5-1.597-2.249-3.671-2.249-6.231c0-2.662,0.789-4.809,2.373-6.443c1.588-1.628,3.602-2.445,6.053-2.445
	c2.666,0,4.85,1.032,6.562,3.093c1.707,2.061,2.56,5.451,2.56,10.173c0,4.799-0.89,8.269-2.671,10.393
	c-1.78,2.129-4.097,3.193-6.956,3.193c-2.051,0-3.712-0.55-4.979-1.642C231.074,204.04,230.262,202.406,229.905,200.231
	L229.905,200.231z M112.271,198.313c0,1.385,0.357,2.468,1.068,3.244c0.712,0.775,1.598,1.165,2.663,1.165
	c1.037,0,1.899-0.375,2.578-1.119c0.684-0.749,1.023-1.827,1.023-3.236c0-1.234-0.349-2.22-1.042-2.968
	c-0.692-0.749-1.569-1.12-2.634-1.12c-1.23,0-2.148,0.423-2.749,1.271C112.574,196.399,112.271,197.321,112.271,198.313
	L112.271,198.313z M112.739,187.057c0,1,0.284,1.785,0.849,2.345c0.568,0.564,1.326,0.844,2.272,0.844
	c0.954,0,1.72-0.284,2.293-0.854c0.574-0.564,0.858-1.349,0.858-2.354c0-0.946-0.284-1.702-0.854-2.267
	c-0.564-0.569-1.316-0.853-2.248-0.853c-0.968,0-1.739,0.289-2.313,0.862S112.739,186.112,112.739,187.057L112.739,187.057z
	 M111.697,192.127c-1.302-0.551-2.248-1.303-2.839-2.267c-0.592-0.963-0.886-2.014-0.886-3.161c0-1.963,0.683-3.58,2.051-4.859
	c1.368-1.28,3.313-1.918,5.837-1.918c2.496,0,4.432,0.638,5.813,1.918c1.382,1.28,2.07,2.896,2.07,4.859
	c0,1.216-0.317,2.303-0.951,3.254c-0.633,0.949-1.523,1.675-2.67,2.174c1.459,0.588,2.565,1.441,3.327,2.565
	c0.757,1.124,1.138,2.417,1.138,3.886c0,2.427-0.775,4.401-2.322,5.916c-1.546,1.518-3.606,2.279-6.176,2.279
	c-2.391,0-4.377-0.628-5.965-1.886c-1.877-1.481-2.817-3.509-2.817-6.093c0-1.422,0.353-2.726,1.06-3.914
	C109.068,193.692,110.183,192.775,111.697,192.127L111.697,192.127z M99.85,206.306h-5.034v-18.982l0,0
	c-1.839,1.721-4.01,2.997-6.506,3.818l0,0v-4.571l0,0c1.312-0.431,2.739-1.244,4.281-2.445c1.542-1.203,2.602-2.602,3.176-4.204l0,0
	h4.083V206.306L99.85,206.306z"/>
<path fill="#E32219" d="M270.651,23.017c-13.82-5.766-28.422-5.449-39.1,0.717c-9.423,5.44-15.792,15.434-15.875,29.818
	c-0.164,2.953-0.883,5.992-2.147,8.911l0,0l-0.08-0.113l0,0c-4.666,7.713-12.447,15.421-21.171,14.766
	c-1.559-7.776-6.691-18.382-11.624-25.148c5.311,0.278,14.019,5.864,15.906,9.886c4.361-4.736,10.571-16.521,9.144-26.046
	c-8.671,0-17.1-2.014-25.771-5.728c0,5.835-10.164,19.901-17.209,23.084c3.528,5.228,6.495,16.595,6.349,26.771
	c-5.22,4.278-12.102,5.068-17.648,4.957c-4.249-6.603-9.973-11.471-10.05-19.755c-0.081-8.597,8.403-20.964,17.538-28.979l0,0
	l-4.541-5.659l0,0c-6.181,2.134-11.544,5.956-16.093,10.791l0,0l0.943-1.539l0,0c-5.21-7.551-14.174-21.086-27.168-24.205
	c-3.727,1.285-8.837,9.097-12.642,17.092c-14,2.868-25.123,13.004-29.747,21.571c-4.825-4.033-8.291-8.243-8.542-13.587
	c-0.685-14.541,18.279-12.156,27.568-7.981l0,0l0.077-10.557l0,0c-13.821-5.767-28.421-5.449-39.1,0.716
	c-9.422,5.44-15.792,15.434-15.875,29.818c-0.026,9.809-6.058,17.698-18.764,21.852c5.528,2.426,13.143,0.57,23.309-2.453
	c-4.954,6.954-10.934,10.54-23.335,13.212c7.752,2.673,19.774,1.613,30.676-1.937c-2.82,6.132-12.164,11.423-29.696,13.468
	c15.311,5.1,22.703,3.452,38.476-1.232c22.067-6.553,36.393,11.405,10.651,17.639c-6.248,1.513-13.896-1.289-21.601-4.513l0,0
	l-7.326,8.968l0,0c10.07,5.225,27.354,9.301,35.567,9.146c25.204-0.477,35.607-20.411,29.327-40.461
	c-4-12.773-15.305-20.26-24.875-27.131c8.423-11.475,38.72-24.688,49.494,2.057c-4.83,11.413-7,23.602-6.538,32.566
	c0.829,16.064,17.343,31.061,6.837,39.131c-2.556,1.806-9.18,4.493-14.235,6.104c-21.912-1.282-35.17-12.524-51.908-13.321
	c-12.542-0.596-22.523,0.507-28.948,9.934c-9.114,13.373-0.877,35.748,19.174,36.143c0.222-7.95,2.179-12.192,3.641-15.112
	c-6.164,0-19.756,1.048-19.74-7.833c0.009-4.525,3.853-5.987,8.228-6.085c21.976-0.493,41.254,28.329,67.199,30.069
	c0.176-12.844,19.168-27.906,33.9-17.656c7.104-10.425,5.924-19.509,1.423-26.879c7.655-8.464,11.048-18.099,11.205-28.318
	c0.04-2.553-0.258-4.823-0.792-6.885c4.743-0.695,10.742-2.23,13.95-4.523l0,0v92.732l0,0c4.313-0.599,5.545-1.335,9.515-4.513l0,0
	l0-15.209l0,0c4.361-0.548,9.162-0.75,13.749-4.6l0,0V85.616l0,0c8.149-0.365,20.341-4.564,28.027-13.201
	c0.042-0.012,0.085-0.025,0.128-0.038c-2.314,8.388-8.881,15.991-21.282,18.664c9.217,2.96,20.36-0.682,28.917-6.814
	c-2.232,6.132-11.284,16.301-27.937,18.347c15.311,5.099,21.531-0.281,37.302-4.964c22.068-6.552,35.221,10.258,9.479,16.492
	c-6.247,1.513-13.896-1.289-21.601-4.513l0,0l-7.327,8.967l0,0c10.071,5.226,27.355,9.302,35.568,9.146
	c24.383-0.461,34.912-19.133,29.886-38.504c21.723,1.563,39.163,37.982,20.988,47.54c-7.344,3.861-13.708,2.697-20.976,1.224
	c-16.047-3.251-28.022-10.625-41.795-11.279c-12.542-0.597-22.523,0.473-28.948,9.898c-9.114,13.373-0.877,35.749,19.174,36.143
	c0.224-7.951,2.18-12.192,3.642-15.112c-6.165,0-19.757,1.048-19.741-7.833c0.009-4.525,3.853-5.987,8.229-6.085
	c21.976-0.493,41.253,28.328,67.199,30.068c0.175-12.843,19.168-27.905,33.9-17.656c7.284-10.689,5.859-19.969,1.075-27.436
	c7.975-10.42,12.89-21.135,11.494-30.097c-1.036-15.146-14.385-19.822-14.504-32.501c-0.08-8.597,8.403-20.965,17.538-28.98l0,0
	l-4.541-5.659l0,0c-5.528,1.909-10.765,5.051-15.264,9.087c-5.226-7.581-14.153-20.944-27.055-24.041
	c-3.727,1.286-8.837,9.098-12.643,17.093c-13.999,2.868-25.082,12.76-29.706,21.327c-5.625-4.701-12.988-14.47-5.869-21.312
	c5.481-5.267,17.89-3.144,24.855-0.011l0,0L270.651,23.017L270.651,23.017z M279.365,76.691
	c-5.284-8.334-14.793-14.074-22.122-18.593c4.875-6.641,17.916-14.709,29.419-14.436c16.521,0.392,29.773,19.821,13.993,31.537
	C297.024,77.895,291.038,78.018,279.365,76.691L279.365,76.691z"/>
<path d="M177.903,378.314c-66.704-50.658-106.118-100.857-129.761-149.5c61.409-1.902,101.661-19.457,129.761-40.855
	c33.534,23.193,78.041,42.165,129.76,40.838C284.02,277.44,244.605,327.639,177.903,378.314L177.903,378.314z"/>
<path fill="#FFED00" d="M177.903,369.375c-60.442-45.898-94.455-89.611-116.816-133.219c45.418-3.74,86.177-16.319,116.816-38.804
	c30.639,22.475,71.398,35.055,116.815,38.794C272.356,279.754,238.344,323.468,177.903,369.375L177.903,369.375z"/>
<path d="M154.942,317.013c2.041-0.272,4.125-0.528,6.244-0.768c-6.241-12.046,2.114-22.246,13.267-22.466
	c-8.481,8.088-8.239,16.903-2.087,21.387c4.032-0.327,4.939-0.443,9.079-0.648c-7.236-10.847,0.739-20.295,11.737-21.539
	c-5.315,5.298-8.042,15.119-1.517,21.163c3.735-0.09,5.636-0.127,9.333-0.109c-4.265-11.208,4.208-18.179,13.43-18.513
	c-5.056,4.508-8.916,13.553-2.966,19.485c2.876,0.591,5.885,0.538,10.728,1.97c3.164,1.607,5.738,4.106,6.486,6.114
	c-39.086-4.74-44.884-3.539-73.839,1.25c-11.695,6.12-17.183,7.755-23.026,2.289c-1.003-1.44-0.151-5.224,3.871-6.075
	c-0.045-2.652,1.888-4.128,4.02-4.774C145.253,314.092,148.103,318.769,154.942,317.013L154.942,317.013z M137.055,283.282
	c2.183-0.314,4.413-0.608,6.679-0.882c-7.377-12.081,0.858-23.796,12.787-24.05c-8.371,9.29-7.409,17.659-0.83,22.81
	c4.313-0.375,8.707-0.683,13.135-0.918c-8.792-10.354,1.491-22.256,13.256-23.687c-5.686,6.086-9.305,16.312-2.325,23.255
	c3.995-0.103,7.986-0.147,11.939-0.126c-5.963-11.469,4.501-20.879,14.365-21.262c-5.408,5.178-9.373,14.691-3.009,21.503
	c4.221,0.162,8.359,0.4,12.367,0.725c-3.728-8.094,1.521-14.803,11.647-16.756c-4.357,4.826-6.859,11.62-2.462,17.675
	c5.559,0.672,12.163,3.178,16.867,4.238c4.671,2.689,6.061,3.525,9.792,6.216c-43.488-6.684-90.801-5.167-114.317-0.327
	c-12.51,7.028-18.379,8.907-24.629,2.629c-1.072-1.655-0.16-6,4.141-6.978c-0.086-5.415,4.561-5.684,9.108-5.684
	C129.263,285.092,132.912,284.424,137.055,283.282L137.055,283.282z M122.23,251.393c2.708-0.347,7.227-1.723,10.038-2.027
	c-8.28-15.275,2.806-30.828,17.954-29.353c-11.253,10.256-11.985,21.245-3.822,26.932c5.351-0.415,9.046-1.105,14.539-1.365
	c-8.104-13.008,2.18-29.858,15.924-28.179c-7.754,7.07-10.671,20.386-2.013,28.051c4.956-0.113,9.906-0.161,14.81-0.138
	c-5.657-14.213,4.883-28.829,19.924-24.34c-7.76,2.208-13.731,17.084-5.837,24.606c5.237,0.177,10.37,0.442,15.341,0.799
	c-3.319-10.873,2.938-22.47,16.903-17.96c-6.458,4.276-10.965,12.29-5.51,18.975c6.896,0.743,15.088,2.295,20.924,3.465
	c5.808,2.683,10.919,6.991,13.199,8.267c-53.947-7.379-105.762-6.59-141.461,0.691c-15.518,7.76-23.852,9.482-31.604,2.551
	c-1.33-1.827-0.199-6.624,5.136-7.703c-0.107-5.98,5.657-6.275,11.299-6.275C112.565,252.177,117.091,252.654,122.23,251.393
	L122.23,251.393z"/>
</svg>
