<?xml version="1.0" encoding="UTF-8"?>
<!DOCTYPE svg PUBLIC "-//W3C//DTD SVG 1.1//EN" "http://www.w3.org/Graphics/SVG/1.1/DTD/svg11.dtd">
<!-- Creator: CorelDRAW -->
<svg xmlns="http://www.w3.org/2000/svg" xml:space="preserve" width="51mm" height="39mm" style="shape-rendering:geometricPrecision; text-rendering:geometricPrecision; image-rendering:optimizeQuality; fill-rule:evenodd; clip-rule:evenodd"
viewBox="0 0 51 39"
 xmlns:xlink="http://www.w3.org/1999/xlink">
 <defs>
  <style type="text/css">
   <![CDATA[
    .fil1 {fill:black;fill-rule:nonzero}
    .fil2 {fill:red;fill-rule:nonzero}
    .fil0 {fill:#FFEB00;fill-rule:nonzero}
    .fil3 {fill:white;fill-rule:nonzero}
   ]]>
  </style>
 </defs>
 <g id="Ebene_x0020_1">
  <metadata id="CorelCorpID_0Corel-Layer"/>
  <path class="fil0" d="M25.5023 7.0461c-3.2545,0 -5.9304,1.5331 -5.9304,1.5026 0,-0.03 -2.1513,-5.5914 -2.2805,-5.9774 0,0 3.9067,-1.8712 8.2275,-1.9069l-0.0314 -0.0022c4.3222,0.0348 8.2255,1.9091 8.2255,1.9091 -0.1292,0.386 -2.2816,5.9474 -2.2816,5.9774 0,0.0305 -2.6755,-1.5026 -5.9291,-1.5026z"/>
  <path class="fil1" d="M17.2215 2.425l-0.1347 0.0646 2.3294 6.1047c0.1493,0.1418 0.1977,0.1182 0.3419,0.0474 1.9123,-0.9379 3.8981,-1.4335 5.7442,-1.4335 1.8449,0 3.8306,0.4956 5.743,1.4335 0.144,0.0708 0.1926,0.0944 0.2718,0.045 0.0703,-0.0924 0.954,-2.4039 0.954,-2.4039l1.4493 -3.7994 -0.1368 -0.0584c-0.0399,-0.0191 -3.9866,-1.8901 -8.295,-1.9249 -4.2779,0.0379 -8.2277,1.9058 -8.2671,1.9249zm8.2984 -1.5983l0 0c3.8216,0.0287 7.3463,1.5403 7.9871,1.8293 -0.0957,0.2529 -1.3391,3.5101 -1.3391,3.5101 -0.5447,1.4181 -0.7438,1.937 -0.8278,2.1666 -1.9417,-0.9442 -3.9592,-1.4487 -5.8378,-1.4487 -1.8797,0 -3.8973,0.5045 -5.8389,1.4487 -0.0848,-0.2296 -0.2834,-0.749 -0.8296,-2.1697 0,0 -1.2399,-3.2536 -1.3367,-3.507 0.6416,-0.2885 4.1721,-1.7971 8.0228,-1.8293z"/>
  <path class="fil0" d="M25.4968 32.0229c-2.439,-0.082 -3.7886,-0.5816 -5.9786,-1.3946 -3.0326,-1.1121 -9.6479,-2.3489 -13.1138,-1.2799 -0.3523,0.1085 -0.3786,0.3508 -0.2577,0.7025 0.1652,0.4761 1.2855,4.4407 1.5284,5.2538 0.122,0.4327 0.2231,0.7562 0.8247,0.6235 5.8274,-1.2998 8.3424,2.3947 16.997,2.3947 8.6558,0 11.1701,-3.6945 16.9971,-2.3947 0.6018,0.1327 0.7038,-0.1908 0.8258,-0.6235 0.2432,-0.8131 1.3625,-4.7777 1.5275,-5.2538 0.1209,-0.3517 0.0948,-0.594 -0.2577,-0.7025 -3.4661,-1.069 -10.081,0.1678 -13.114,1.2799 -2.1898,0.813 -3.5392,1.3126 -5.9787,1.3946z"/>
  <path class="fil1" d="M6.3525 29.1796c-0.1893,0.0582 -0.3204,0.1575 -0.3903,0.2946 -0.1071,0.2112 -0.0413,0.463 0.0178,0.6346 0.1028,0.2962 0.5951,2.013 0.9908,3.392l0.5353 1.8545c0.1146,0.4069 0.2581,0.916 1.0317,0.7455 2.972,-0.6631 5.0186,-0.0224 7.61,0.7883 2.4135,0.7551 5.149,1.6108 9.349,1.6108 4.201,0 6.9367,-0.8557 9.35,-1.6108 2.5911,-0.8107 4.6375,-1.4514 7.6089,-0.7883 0.7748,0.1705 0.9184,-0.3386 1.0342,-0.7482 -0.0007,0.0027 0.5381,-1.8663 0.5381,-1.8663 0.3941,-1.3732 0.8837,-3.0823 0.986,-3.3772 0.0589,-0.1719 0.1247,-0.4237 0.0175,-0.6349 -0.0695,-0.1371 -0.2008,-0.2364 -0.3899,-0.2946 -3.4027,-1.0497 -9.9801,0.0924 -13.2268,1.2827 -2.1859,0.8116 -3.5061,1.3015 -5.918,1.3832 -2.4114,-0.0817 -3.7318,-0.5716 -5.9173,-1.3829 -3.2467,-1.1906 -9.8244,-2.333 -13.227,-1.283zm1.4924 6.0772l0 0c-0.0007,-0.0028 -0.5352,-1.8535 -0.5352,-1.8535 -0.4173,-1.4552 -0.8905,-3.105 -0.9964,-3.4106 -0.0584,-0.1699 -0.0707,-0.2908 -0.0364,-0.3583 0.0246,-0.0486 0.0851,-0.0879 0.1795,-0.1172 3.3294,-1.0269 9.801,0.1038 13.0011,1.2768 2.2202,0.8244 3.5608,1.3222 6.0335,1.4056l0.0117 0c2.4732,-0.0834 3.8134,-0.5812 6.0344,-1.4059 3.1998,-1.1731 9.6711,-2.3031 13.0004,-1.2765 0.0944,0.0293 0.1547,0.0686 0.1795,0.1172 0.0345,0.0675 0.0221,0.1884 -0.0365,0.3586 -0.1054,0.3042 -0.5764,1.9465 -0.9915,3.3959l-0.5385 1.8651c-0.1285,0.4569 -0.1894,0.5964 -0.6184,0.502 -3.063,-0.6835 -5.2534,0.0024 -7.7903,0.7958 -2.3899,0.7472 -5.0978,1.5947 -9.245,1.5947 -4.146,0 -6.8544,-0.8475 -9.2439,-1.5944 -2.537,-0.7937 -4.7279,-1.4796 -7.7914,-0.7961 -0.4276,0.094 -0.4886,-0.0451 -0.6166,-0.4992z"/>
  <g id="_42101704">
   <path id="_42101744" class="fil2" d="M7.0798 13.0767c0,0.1215 -0.0789,0.775 -0.2989,1.0932 -0.2198,0.319 -1.1622,2.097 -1.4926,2.5595 -0.7405,1.0385 -1.1463,1.8132 -0.9655,2.7363 0,0 -1.8386,0.2529 -2.5299,-1.6363 -0.5605,-1.5377 0.6324,-3.273 1.2308,-4.161 1.2266,-1.8195 0.57,-4.2119 0.5385,-4.233 0,0 0.5302,-0.2053 0.5798,-1.0094 0.0251,-0.4103 -0.1137,-0.8654 -0.523,-1.2913 -0.4017,-0.4199 -0.9856,-0.5146 -1.5725,-0.4874 -0.489,0.0222 -0.8625,0.2966 -1.1582,0.4679 -0.2944,0.1707 -0.2829,0.3354 -0.1756,0.3929 0.1084,0.0567 0.3325,0.3829 0.487,0.5812 0.1557,0.1993 0.1664,0.3535 0.2474,0.7117 0.104,0.465 0.7362,0.7149 1.2168,0.6902 0,0 0.7438,1.9965 -0.507,3.8935 -0.4785,0.7283 -1.846,2.4421 -1.3432,4.4557 0.7638,3.0696 3.9508,2.6671 3.9508,2.6671 0.1094,0.1104 0.4618,0.4825 0.7447,0.8017 -0.0231,0.1713 0.5798,1.3875 -0.9254,2.5161 -0.4904,0.3672 -0.6239,0.8561 -0.0549,1.2712 3.8941,2.8436 2.9001,3.741 3.5701,3.8092 0.1757,0.018 0.5585,-0.0451 0.9373,-0.2797 0.5669,0.4234 1.3653,0.3273 1.6219,0.0631 1.217,0.587 1.56,-0.3063 1.3676,-0.6784 0,0 1.2917,-0.4592 0.1882,-1.697 -0.3419,-0.3832 -1.014,-0.4989 -1.356,-0.4293 -0.3881,0.0799 -2.5833,-1.5241 -2.3004,-1.9485 0.2125,-0.3205 1.4147,-0.8134 1.8155,-1.1145 0.3461,-0.2601 1.1552,-1.0026 1.1657,-1.7441 0.0136,-0.8172 -0.2768,-1.8643 -1.9892,-1.958 0.0906,-0.631 0.1872,-1.8539 1.5873,-2.8665 0.7741,-0.5597 1.4526,-1.7353 1.4768,-1.9317 0.8836,0 2.3772,-3.0424 2.6938,-3.597 0.1105,-0.1941 0.7943,-1.4776 0.7943,-1.4776 0.4933,0.0031 1.2358,-0.3767 1.2358,-0.3767 0,0 1.1771,0.7779 1.3148,-0.3966 0.9026,0.3483 0.6859,-0.8962 0.2537,-1.1739 0,0 0.0715,-0.7934 -0.4513,-1.0101 -0.4723,-0.1951 -0.6764,-0.0725 -1.1162,0.0742 -0.4406,0.1477 -1.3033,0.6906 -1.6945,0.985 0.2524,-1.0444 0.9783,-1.9923 0.9783,-1.9923 0,0 0.3903,0.3192 0.7856,0.0267 0.1201,-0.0882 0.3819,-0.2468 0.6313,-0.3027 0.1189,-0.0272 0.7404,-0.7399 0.4207,-0.9694 -0.4312,-0.3118 -0.6901,-0.3592 -0.6901,-0.3592 -0.0294,-0.2733 -0.1965,-0.5667 -0.1083,-0.8015 0.0883,-0.2354 0.5407,-0.5415 0.5376,-0.7985 -0.0074,-0.5219 -0.7006,-0.4829 -1.115,-0.2121 -0.5039,-0.5784 -0.991,-0.0539 -0.991,-0.0539 -0.8108,-0.1984 -1.2106,0.7927 -1.2769,1.1128 -0.4229,-0.1294 -1.016,-0.2952 -1.2559,-0.2952 -0.3924,0 -0.6122,-0.148 -0.6122,-0.148l-0.564 -0.3914 -0.9539 -0.098c0,0 0.041,-0.3066 -0.0484,-0.4661 -0.1261,-0.2233 -0.343,-0.1716 -0.5879,-0.2934 -0.2452,-0.1231 -0.5144,-0.2942 -0.4155,-0.4909 0.0976,-0.1951 -0.2052,-0.1273 -0.4744,-0.0525 -0.2694,0.0732 -0.3325,0.1271 -0.4313,0.2492 -0.0979,0.1227 0.1145,0.4982 0.1145,0.4982 0,0 -0.3585,-0.0092 -0.4816,-0.0092 -0.1232,0 -0.3924,0.0986 -0.5628,0.1234 -0.1714,0.0248 -0.4492,-0.0842 -0.4492,-0.1821 0,-0.098 0.0127,-0.2761 0.0222,-0.2945 0.061,-0.1174 -0.3314,0.0104 -0.6007,0.2318 -0.2693,0.22 -0.3429,0.5629 -0.2451,0.6861 0.0991,0.1227 0.2451,0.3678 0.2451,0.3678 0,0 -0.0484,0.073 -0.1956,0.2197 -0.1473,0.1477 -0.1473,0.343 -0.1473,0.343 0,0 -0.3693,-0.012 -0.4608,-0.1478 -0.0535,-0.0816 0.0064,-0.2382 -0.0682,-0.3862 -0.0453,-0.0906 -0.4976,0.3182 -0.6101,0.5904 -0.0672,0.1598 0.0137,0.4345 0.0873,0.6058 0.0736,0.1715 0.3671,0.2447 0.3671,0.2447 0,0 -0.0737,0.1718 -0.1222,0.4414 -0.0494,0.2695 -0.0735,0.4661 -0.0241,0.6609 0.0484,0.1964 -0.0819,0.2913 -0.3428,0.2949 -0.201,0.0021 -0.4439,-0.3314 -0.5093,-0.3435 -0.0851,-0.0157 -0.2713,0.3724 -0.2713,0.5436 0,0.1718 0.1032,0.5061 0.3157,0.6572 0.1335,0.0948 0.4511,-0.0205 0.5216,0.0465 0.0674,0.062 0.02,0.4406 -0.042,0.713 -0.0431,0.1896 0.0589,0.4656 -0.0643,0.5887 -0.1219,0.1216 -0.2198,0.1949 -0.3912,0.1464 -0.1715,-0.0485 -0.284,-0.1985 -0.3629,-0.2016 -0.0556,-0.0021 -0.1841,0.324 -0.1356,0.5434 0.0483,0.2212 0.1167,0.4047 0.41,0.4782 0.2947,0.0732 0.4892,-0.0551 0.5514,0.0374 0.0441,0.0647 0.0841,0.5598 0.2713,0.8342 0.1431,0.2069 0.0274,0.3709 -0.1683,0.4193 -0.1967,0.0494 -0.4396,-0.0832 -0.5405,-0.0765 -0.0517,0.0021 -0.061,0.55 0.062,0.6967 0.123,0.1467 0.2439,0.3789 0.5543,0.3789 0.3114,0 0.4859,-0.2746 0.5205,0.001 0.0116,0.0947 0.08,0.8885 -0.0389,1.2444 -0.0715,0.2168 -0.3197,0.3427 -0.6025,0.2974 -0.2579,-0.0396 0.4585,0.82 1.0013,0.7717z"/>
   <path id="_42102768" class="fil2" d="M43.9005 13.0767c0,0.1215 0.0779,0.775 0.2987,1.0932 0.2202,0.319 1.1634,2.097 1.4938,2.5595 0.7404,1.0385 1.1465,1.8132 0.9657,2.7363 0,0 1.8386,0.2529 2.5287,-1.6363 0.5615,-1.5377 -0.6322,-3.273 -1.231,-4.161 -1.2254,-1.8195 -0.5698,-4.2119 -0.5374,-4.233 0,0 -0.5302,-0.2053 -0.5805,-1.0094 -0.0255,-0.4103 0.1123,-0.8654 0.5226,-1.2913 0.4017,-0.4199 0.9867,-0.5146 1.5724,-0.4874 0.4905,0.0222 0.8636,0.2966 1.1586,0.4679 0.2952,0.1707 0.2838,0.3354 0.1753,0.3929 -0.1082,0.0567 -0.331,0.3829 -0.4861,0.5812 -0.1554,0.1993 -0.166,0.3535 -0.247,0.7117 -0.104,0.465 -0.7362,0.7149 -1.2168,0.6902 0,0 -0.7448,1.9965 0.5057,3.8935 0.4799,0.7283 1.8459,2.4421 1.3443,4.4557 -0.7645,3.0696 -3.9505,2.6671 -3.9505,2.6671 -0.1099,0.1104 -0.462,0.4825 -0.7469,0.8017 0.0252,0.1713 -0.5777,1.3875 0.9267,2.5161 0.491,0.3672 0.6236,0.8561 0.0534,1.2712 -3.8915,2.8436 -2.8976,3.741 -3.5677,3.8092 -0.1767,0.018 -0.5598,-0.0451 -0.9374,-0.2797 -0.5691,0.4234 -1.3667,0.3273 -1.623,0.0631 -1.2161,0.587 -1.5589,-0.3063 -1.3684,-0.6784 0,0 -1.2898,-0.4592 -0.1874,-1.697 0.3431,-0.3832 1.0139,-0.4989 1.356,-0.4293 0.389,0.0799 2.5845,-1.5241 2.3013,-1.9485 -0.2126,-0.3205 -1.4145,-0.8134 -1.8166,-1.1145 -0.3459,-0.2601 -1.1558,-1.0026 -1.1665,-1.7441 -0.0114,-0.8172 0.2777,-1.8643 1.9902,-1.958 -0.0906,-0.631 -0.1874,-1.8539 -1.5871,-2.8665 -0.7741,-0.5597 -1.4528,-1.7353 -1.4769,-1.9317 -0.8827,0 -2.3775,-3.0424 -2.6941,-3.597 -0.1103,-0.1941 -0.7951,-1.4776 -0.7951,-1.4776 -0.492,0.0031 -1.2337,-0.3767 -1.2337,-0.3767 0,0 -1.1769,0.7779 -1.316,-0.3966 -0.9027,0.3483 -0.6866,-0.8962 -0.2526,-1.1739 0,0 -0.0723,-0.7934 0.4503,-1.0101 0.4723,-0.1951 0.6763,-0.0725 1.1172,0.0742 0.4407,0.1477 1.302,0.6906 1.6947,0.985 -0.2529,-1.0444 -0.9784,-1.9923 -0.9784,-1.9923 0,0 -0.3914,0.3192 -0.7869,0.0267 -0.1188,-0.0882 -0.381,-0.2468 -0.6322,-0.3027 -0.1178,-0.0272 -0.7386,-0.7399 -0.4196,-0.9694 0.4324,-0.3118 0.6887,-0.3592 0.6887,-0.3592 0.0317,-0.2733 0.1981,-0.5667 0.111,-0.8015 -0.0889,-0.2354 -0.5409,-0.5415 -0.5378,-0.7985 0.0076,-0.5219 0.6986,-0.4829 1.1138,-0.2121 0.505,-0.5784 0.9922,-0.0539 0.9922,-0.0539 0.8109,-0.1984 1.2105,0.7927 1.277,1.1128 0.4217,-0.1294 1.016,-0.2952 1.2558,-0.2952 0.392,0 0.6122,-0.148 0.6122,-0.148l0.5626 -0.3914 0.9553 -0.098c0,0 -0.0413,-0.3066 0.0482,-0.4661 0.1251,-0.2233 0.3421,-0.1716 0.5871,-0.2934 0.2439,-0.1231 0.513,-0.2942 0.4155,-0.4909 -0.0969,-0.1951 0.2053,-0.1273 0.4743,-0.0525 0.2691,0.0732 0.3335,0.1271 0.431,0.2492 0.0982,0.1227 -0.1133,0.4982 -0.1133,0.4982 0,0 0.359,-0.0092 0.4809,-0.0092 0.122,0 0.391,0.0986 0.5626,0.1234 0.1715,0.0248 0.4503,-0.0842 0.4503,-0.1821 0,-0.098 -0.0138,-0.2761 -0.0221,-0.2945 -0.061,-0.1174 0.33,0.0104 0.5995,0.2318 0.2694,0.22 0.3428,0.5629 0.2453,0.6861 -0.0979,0.1227 -0.2453,0.3678 -0.2453,0.3678 0,0 0.0496,0.073 0.1957,0.2197 0.1471,0.1477 0.1471,0.343 0.1471,0.343 0,0 0.3703,-0.012 0.4605,-0.1478 0.0548,-0.0816 -0.0051,-0.2382 0.0676,-0.3862 0.0455,-0.0906 0.4985,0.3182 0.6122,0.5904 0.0661,0.1598 -0.0148,0.4345 -0.0882,0.6058 -0.0737,0.1715 -0.3662,0.2447 -0.3662,0.2447 0,0 0.0727,0.1718 0.1219,0.4414 0.0496,0.2695 0.0727,0.4661 0.0245,0.6609 -0.0496,0.1964 0.082,0.2913 0.3428,0.2949 0.2008,0.0021 0.444,-0.3314 0.5081,-0.3435 0.0862,-0.0157 0.2711,0.3724 0.2711,0.5436 0,0.1718 -0.1019,0.5061 -0.3141,0.6572 -0.1337,0.0948 -0.4517,-0.0205 -0.523,0.0465 -0.0665,0.062 -0.0189,0.4406 0.042,0.713 0.0431,0.1896 -0.0578,0.4656 0.0641,0.5887 0.123,0.1216 0.2208,0.1949 0.3924,0.1464 0.1705,-0.0485 0.2828,-0.1985 0.3617,-0.2016 0.0569,-0.0021 0.1854,0.324 0.1368,0.5434 -0.0503,0.2212 -0.1178,0.4047 -0.411,0.4782 -0.2939,0.0732 -0.4882,-0.0551 -0.5516,0.0374 -0.0441,0.0647 -0.084,0.5598 -0.2711,0.8342 -0.1419,0.2069 -0.0261,0.3709 0.1692,0.4193 0.1946,0.0494 0.4396,-0.0832 0.5409,-0.0765 0.0516,0.0021 0.0589,0.55 -0.0631,0.6967 -0.1223,0.1467 -0.2432,0.3789 -0.5543,0.3789 -0.3125,0 -0.4861,-0.2746 -0.5199,0.001 -0.0127,0.0947 -0.0809,0.8885 0.0379,1.2444 0.0727,0.2168 0.3211,0.3427 0.604,0.2974 0.2573,-0.0396 -0.4586,0.82 -1.0026,0.7717z"/>
  </g>
  <g id="_42713544">
   <path id="_42713688" class="fil1" d="M19.082 7.2537c0.0005,-0.0142 0.0012,-0.0138 0.0012,-0.0321 0,-0.2518 -0.0539,-0.8547 -0.5543,-1.0617 -0.4708,-0.1945 -0.725,-0.1055 -1.077,0.0177l-0.1519 0.0524c-0.3507,0.1174 -0.9214,0.4549 -1.3474,0.7357 0.2312,-0.6248 0.5771,-1.1574 0.7307,-1.3765 0.2073,0.1057 0.5237,0.1745 0.8336,-0.0543 0.099,-0.0732 0.3455,-0.2248 0.57,-0.2751 0.1838,-0.0422 0.5626,-0.5123 0.6259,-0.829 0.0081,-0.0402 0.0117,-0.0772 0.0117,-0.1111 0,-0.1752 -0.0941,-0.2727 -0.1579,-0.3186 -0.3068,-0.2213 -0.5252,-0.3134 -0.6475,-0.3543 -0.021,-0.0954 -0.0469,-0.2118 -0.0469,-0.2118 -0.0313,-0.1125 -0.0618,-0.2202 -0.0618,-0.31 0,-0.0344 0.0045,-0.0662 0.0152,-0.0943 0.0265,-0.0702 0.1255,-0.1787 0.2127,-0.2743 0.1647,-0.1807 0.3348,-0.3674 0.3348,-0.5777l0 -0.0047c-0.003,-0.2182 -0.1028,-0.3903 -0.2807,-0.4854 -0.281,-0.1497 -0.6754,-0.0696 -0.9726,0.0872 -0.1614,-0.1485 -0.3338,-0.2424 -0.5217,-0.2455 -0.2531,-0.0039 -0.4491,0.1306 -0.5452,0.2109 -0.2372,-0.0371 -0.4617,0.0022 -0.667,0.1321 -0.3705,0.2341 -0.5751,0.673 -0.6649,0.9474 -0.4237,-0.1259 -0.9143,-0.2561 -1.1469,-0.2561 -0.3315,0 -0.5207,-0.12 -0.5226,-0.1212l-0.5948 -0.4123c0,0 -0.6234,-0.0641 -0.8406,-0.0863 0.0002,-0.0067 0.0011,-0.0076 0.0011,-0.0145 0,-0.1192 -0.0152,-0.2711 -0.0791,-0.3852 -0.1158,-0.2041 -0.288,-0.2478 -0.4401,-0.2864l-0.2174 -0.0727c-0.2818,-0.1416 -0.3352,-0.225 -0.3447,-0.2542 0.0279,-0.0605 0.0382,-0.1115 0.0382,-0.1534 0,-0.0678 -0.0268,-0.1126 -0.048,-0.1386 -0.1063,-0.1294 -0.3022,-0.1041 -0.6501,-0.0076 -0.2916,0.0791 -0.3883,0.1481 -0.5137,0.303 -0.044,0.0553 -0.0613,0.1233 -0.0613,0.1962 0,0.0767 0.0222,0.1586 0.0498,0.2369 -0.1144,-0.0023 -0.2298,-0.0044 -0.2298,-0.0044l-0.3405 0.0674 -0.2453 0.0574c-0.0881,0.0127 -0.2136,-0.0333 -0.2603,-0.0669 0.0038,-0.061 0.0129,-0.206 0.0129,-0.206 0.0112,-0.0193 0.0164,-0.0408 0.0164,-0.0627 0,-0.0534 -0.0296,-0.1091 -0.0708,-0.1423 -0.1972,-0.1604 -0.6927,0.1762 -0.8048,0.2682 -0.2158,0.1766 -0.3448,0.4456 -0.3448,0.6658 0,0.0951 0.0242,0.181 0.0759,0.2461 0.0005,0.0006 0.0996,0.1495 0.1681,0.2529 -0.0508,0.0565 -0.1064,0.1183 -0.1064,0.1183 -0.0906,0.0908 -0.1352,0.1924 -0.1609,0.2777 -0.0925,-0.0151 -0.1754,-0.0362 -0.1978,-0.0598 0.0019,-0.0006 0.0026,-0.0103 0.0026,-0.0224 0,-0.0177 -0.0012,-0.0392 -0.0012,-0.0392l-0.0866 -0.441 -0.1494 0.0341c-0.2156,0.0078 -0.6287,0.4623 -0.7281,0.7025 -0.0267,0.0635 -0.0375,0.1354 -0.0375,0.2087 0,0.2028 0.0814,0.4198 0.1261,0.5226 0.0623,0.1459 0.2048,0.2304 0.3209,0.2808 -0.0391,0.1413 -0.0867,0.312 -0.0867,0.312 -0.0296,0.1602 -0.0539,0.3109 -0.0539,0.4587 0,0.0904 0.0093,0.1798 0.0319,0.2703 0.0038,0.0153 0.005,0.027 0.005,0.0349 0,0.0095 -0.0016,0.0143 -0.0026,0.0157 -0.0004,0.0004 -0.0322,0.0396 -0.1902,0.0419 -0.0665,0.0007 -0.2136,-0.1406 -0.2759,-0.2012l-0.2014 -0.1394c-0.0424,-0.0076 -0.1083,-0.005 -0.1769,0.0525 -0.1309,0.1093 -0.2859,0.4613 -0.2859,0.6501 0,0.2143 0.1192,0.6009 0.3834,0.7888 0.1219,0.0863 0.2882,0.072 0.4217,0.0606 0,0 0.032,-0.0013 0.0641,-0.0027 0.0001,0.0048 0.001,0.0058 0.001,0.0113 0,0.1062 -0.0216,0.3037 -0.071,0.5215l-0.0102 0.295c0.0021,0.0314 0.0051,0.0755 0.0051,0.1158 0,0.0456 -0.0039,0.0866 -0.0161,0.0987 -0.1162,0.1163 -0.154,0.1268 -0.2323,0.1047l-0.1789 -0.1032 -0.3341 -0.1578 -0.0469 0.1313c-0.0925,0.1108 -0.1932,0.4238 -0.1407,0.6621 0.0524,0.2395 0.1411,0.5029 0.529,0.6002 0.0003,0 0.4277,0.0141 0.4277,0.0141 0,0 0.0177,-0.0014 0.0341,-0.0027 0.0072,0.0363 0.0172,0.0802 0.0172,0.0802 0.0417,0.2002 0.1048,0.5023 0.2489,0.7135 0.023,0.0334 0.0352,0.0634 0.0352,0.0856 0,0.0061 -0.0009,0.0117 -0.0028,0.0166 -0.0079,0.0213 -0.0403,0.0516 -0.1061,0.0678 -0.082,0.0205 -0.2026,-0.0139 -0.2966,-0.0417l-0.3414 -0.062 -0.025 0.1335c-0.0577,0.1306 -0.0605,0.6603 0.0997,0.8517 0.0002,0 0.054,0.068 0.054,0.068 0.1122,0.1464 0.2826,0.368 0.624,0.368 0,0 0.3333,-0.0833 0.3611,-0.0901 0.0127,0.1283 0.0265,0.3229 0.0265,0.5381 0,0.2227 -0.0146,0.4478 -0.0596,0.5827 -0.0465,0.1413 -0.2244,0.2203 -0.4232,0.1886 -0.0872,-0.0134 -0.1651,0.0171 -0.2084,0.0813 -0.0221,0.0329 -0.0333,0.0698 -0.0333,0.1103 0,0.0537 0.0193,0.1138 0.0584,0.1798 0.1187,0.2021 0.5414,0.6193 0.9841,0.6947 -0.027,0.227 -0.1078,0.6489 -0.257,0.8649 -0.0002,0.0002 -0.5891,1.0175 -0.5891,1.0175 -0.3371,0.601 -0.7192,1.2821 -0.9018,1.5376 -0.6458,0.9052 -1.0378,1.6235 -1.0378,2.3982 0,0.0912 0.0162,0.1854 0.0274,0.2788 -0.4302,0.0124 -1.6666,-0.0836 -2.1996,-1.5393 -0.0952,-0.2613 -0.1365,-0.5297 -0.1365,-0.7989 0,-1.2127 0.834,-2.4488 1.3234,-3.1738l0.0253 -0.0381c0.6148,-0.9109 0.7672,-1.959 0.7672,-2.7745 0,-0.5564 -0.0709,-1.0046 -0.1147,-1.2282 -0.0212,-0.1076 -0.0386,-0.1843 -0.0546,-0.2449 0.1871,-0.1244 0.5076,-0.4241 0.5474,-1.0709 0.0021,-0.0326 0.0033,-0.0669 0.0033,-0.1024 0,-0.3483 -0.1094,-0.8297 -0.5709,-1.3101 -0.3796,-0.3964 -0.9344,-0.5717 -1.6963,-0.5361 -0.4577,0.0207 -0.8127,0.2359 -1.0978,0.4091l-0.1335 0.0798c-0.2682,0.1552 -0.3257,0.3142 -0.3257,0.4219 0,0.0017 0,0.0034 0.0002,0.005 0.0017,0.1048 0.0595,0.1979 0.1548,0.2487 0.0577,0.0351 0.2255,0.2596 0.3157,0.38l0.1198 0.1577c0.1069,0.1367 0.13,0.245 0.1807,0.4824l0.0358 0.1645c0.1128,0.5016 0.7135,0.7934 1.255,0.8111 0.0574,0.194 0.1737,0.6615 0.1737,1.2718 0,0.684 -0.1482,1.5411 -0.6961,2.3716 0,0.0002 -0.1535,0.2272 -0.1535,0.2272 -0.4883,0.7133 -1.3265,1.9363 -1.3265,3.4149 0,0.3027 0.0349,0.6162 0.1154,0.9381 0.7228,2.9018 3.5431,2.8293 4.0419,2.7935 0.0832,0.0894 0.6162,0.663 0.6617,0.7114 0.0072,0.0558 0.0144,0.1113 0.0144,0.1113 0.0292,0.1298 0.0712,0.3179 0.0712,0.5436 0,0.4531 -0.1702,1.0584 -0.9605,1.6502 -0.3221,0.2412 -0.4925,0.5195 -0.4925,0.8044l0 0.0049c0.0012,0.184 0.0782,0.4585 0.4394,0.7221 2.5918,1.8906 2.9774,2.8883 3.1628,3.3675 0.0944,0.2436 0.169,0.4362 0.4851,0.4682 0.2113,0.0211 0.5882,-0.063 0.9508,-0.2638 0.5504,0.3513 1.2668,0.3248 1.633,0.0616 0.7659,0.339 1.1717,0.1103 1.3441,-0.0672 0.1468,-0.1512 0.2262,-0.362 0.2262,-0.5619 0,-0.0472 -0.0212,-0.0868 -0.03,-0.1312 0.1786,-0.0913 0.4928,-0.296 0.5869,-0.6646 0.0177,-0.0703 0.0265,-0.1416 0.0265,-0.215 0,-0.3124 -0.1628,-0.6531 -0.487,-1.0162 -0.3874,-0.4352 -1.1251,-0.5585 -1.5084,-0.481 -0.1955,0.0151 -1.3353,-0.6897 -1.9079,-1.3391 -0.2112,-0.2398 -0.2226,-0.3424 -0.2226,-0.3614 0,-0.0021 0.0002,-0.0031 0.0002,-0.0031 0.1025,-0.1516 0.6021,-0.4134 1.0031,-0.6243l0.7719 -0.444c0.1245,-0.093 1.2168,-0.9381 1.2297,-1.8692 0.0003,-0.0189 0.0005,-0.0375 0.0005,-0.0561 0,-1.2144 -0.6913,-1.9015 -1.9687,-2.0314 0.0899,-0.6518 0.2582,-1.706 1.4996,-2.6033 0.6994,-0.5058 1.3612,-1.5314 1.5081,-1.9304 0.7393,-0.1599 1.6483,-1.6708 2.528,-3.3149l0.1788 -0.3292c0.0002,-0.0004 0.5995,-1.115 0.7574,-1.4085 0.4374,-0.033 0.9485,-0.2569 1.1223,-0.3408 0.1882,0.1096 0.6685,0.3463 1.0554,0.1665 0.1969,-0.0917 0.3119,-0.2944 0.3778,-0.5596 0.3817,0.0788 0.5553,-0.1169 0.6097,-0.2235 0.0472,-0.0939 0.0691,-0.2083 0.0691,-0.3311 0,-0.3151 -0.1488,-0.6732 -0.3712,-0.8702zm-3.523 -5.1062l0 0c0.0992,-0.0623 0.2022,-0.0925 0.3111,-0.0975 -0.1028,0.2429 -0.0902,0.4396 -0.0894,0.4506 0.0068,0.0888 0.0836,0.1547 0.1726,0.1487 0.0887,-0.006 0.1557,-0.0832 0.1506,-0.1719 -0.0007,-0.0102 -0.0121,-0.2494 0.1788,-0.4951 0.0036,-0.0046 0.0045,-0.01 0.0076,-0.0148 0.0656,-0.0499 0.1739,-0.1156 0.3048,-0.1128 0.117,0.0024 0.2322,0.0651 0.3434,0.18l-0.0118 0.0148c-0.1591,0.19 -0.2087,0.2594 -0.2947,0.5902 -0.0226,0.0866 0.0293,0.1753 0.1158,0.1979 0.0864,0.0224 0.1751,-0.0295 0.1975,-0.1163 0.0719,-0.2747 0.0958,-0.3035 0.2295,-0.4636l0.1893 -0.234c0.0048,-0.0062 0.0058,-0.0133 0.0098,-0.0197 0.2095,-0.0816 0.436,-0.0985 0.566,-0.0293 0.0462,0.0245 0.1077,0.0726 0.1096,0.2033 0.001,0.0842 -0.1445,0.2436 -0.2505,0.3595 -0.1176,0.1287 -0.2285,0.2505 -0.2768,0.3791 -0.0754,0.2005 -0.0176,0.4066 0.0381,0.6059l0.084 0.3715 0.1074 0.0394c0.0022,0.0006 0.2375,0.0507 0.6256,0.3311 0.0107,0.0076 0.0255,0.0183 0.0229,0.0655 -0.0112,0.2089 -0.3206,0.5727 -0.4063,0.6211 -0.2362,0.0502 -0.5118,0.2064 -0.6696,0.3227 -0.2818,0.2082 -0.5567,0.0017 -0.5874,-0.0226l-0.1292 -0.1025 -0.1013 0.1301c-0.0298,0.0391 -0.7229,0.9534 -0.9918,1.9947 -0.3811,0.298 -1.3749,1.214 -1.7282,1.5459 -0.0822,-0.1198 -0.1284,-0.2728 -0.1499,-0.4792 -0.0501,-0.474 -0.1996,-0.9532 -0.3555,-1.1401 -0.0221,-0.0269 -0.0481,-0.0531 -0.0748,-0.0787 0.3287,-0.0321 0.719,-0.0744 0.8275,-0.1053 0.2246,-0.0648 0.5607,-0.5737 0.6246,-0.7868 0.031,-0.1032 0.0205,-0.1864 -0.0313,-0.2469l-0.0486 -0.0572c0,0 -1.3343,0.0045 -1.6004,0.0054 0.0003,-0.1526 0.001,-0.3125 0.0017,-0.4603 0.2487,-0.007 1.2173,-0.0348 1.2173,-0.0348 0.0003,0 0.2851,0.0117 0.2851,0.0117 0.194,0.0197 0.3946,0.0402 0.5414,-0.1074 0.1607,-0.1609 0.19,-0.7211 0.1922,-1.0759 0.0944,-0.1299 0.2903,-0.423 0.2903,-0.6331l-0.0701 -0.5999 -0.0956 -0.0173 -0.3118 -0.0987c0.0802,-0.2377 0.2587,-0.5955 0.5305,-0.7674zm-3.2182 0.1976l0 0c0.0603,0.0419 0.5291,0.3672 0.5291,0.3672 0.0125,0.0083 0.2677,0.1766 0.7042,0.1766 0.1701,0 0.6103,0.1051 1.2082,0.2882l0.0047 0.0014c0.0243,0.0075 0.2408,0.0763 0.3541,0.1123 0.0136,0.113 0.0407,0.34 0.0407,0.34 0,0.0844 -0.1326,0.3173 -0.2563,0.4823l-0.0328 0.0431 0 0.0542c-0.0001,0.4062 -0.0478,0.8289 -0.1021,0.9042 -0.0346,0.0346 -0.1574,0.0219 -0.276,0.0098l-0.3441 -0.0122c-0.0009,0 -1.5114,0.0429 -1.5114,0.0429l-0.0029 0.1569 -0.0038 0.9436c0,0 1.3295,-0.004 1.6464,-0.005 -0.092,0.1706 -0.2787,0.4179 -0.3591,0.4556 -0.108,0.0302 -0.8089,0.0986 -1.2236,0.1344l0.0009 0.0093c-0.5232,0.0074 -1.3443,-0.009 -1.5267,-0.0856 -0.1154,-0.0477 -0.2942,-0.1952 -0.452,-0.325 -0.2711,-0.224 -0.4454,-0.3611 -0.6001,-0.3611 -0.1497,-0.021 -0.9078,-0.402 -0.9905,-0.5996 -0.1521,-0.369 -0.1905,-0.6758 -0.1387,-0.748 0.1342,-0.1905 0.2808,-0.8717 0.3085,-1.0063l0.0228 -0.1085 -0.0929 -0.0606c-0.1212,-0.0787 -0.334,-0.257 -0.391,-0.3993 -0.0687,-0.1716 -0.0558,-0.395 0.0836,-0.4725 0.1667,-0.0935 0.6263,-0.0896 0.7357,-0.0673l0.063 0.0129 0.0548 -0.034c0.2052,-0.1272 0.5412,-0.3197 0.6439,-0.3488 0.0844,-0.0241 0.4976,-0.0231 0.8637,-0.0082 0.1812,0.0185 0.9723,0.1002 1.0397,0.1071zm-6.0489 10.1239l0 0c0.2617,-0.0284 0.483,-0.1634 0.5597,-0.3956 0.0599,-0.1789 0.0768,-0.4446 0.0768,-0.6905 0,-0.3265 -0.0302,-0.6182 -0.0308,-0.623 -0.0056,-0.0439 -0.0224,-0.1747 -0.1303,-0.2361 -0.1063,-0.061 -0.2115,-0.0149 -0.3045,0.0255l-0.2469 0.067c-0.1698,0 -0.252,-0.0912 -0.3676,-0.2414l-0.0623 -0.0792c-0.0391,-0.0491 -0.0606,-0.2402 -0.0606,-0.3809 0,-0.0086 0.0015,-0.0115 0.0017,-0.0198 0.1247,0.0362 0.2906,0.0832 0.4527,0.0426 0.1607,-0.04 0.2819,-0.1377 0.331,-0.2677 0.0474,-0.1258 0.0228,-0.2677 -0.069,-0.4007 -0.1072,-0.1571 -0.162,-0.4211 -0.1988,-0.5958l-0.0718 -0.2369c-0.0848,-0.1269 -0.2298,-0.1092 -0.3358,-0.0963l-0.3099 -0.007c-0.1941,-0.0486 -0.2448,-0.1445 -0.2911,-0.3552 -0.005,-0.0229 -0.0072,-0.0479 -0.0072,-0.0736 0,-0.0794 0.0201,-0.1562 0.042,-0.2194 0.039,0.021 0.2613,0.1424 0.2613,0.1424 0.2817,0.0796 0.4496,-0.0876 0.5499,-0.1874 0.1262,-0.1266 0.115,-0.3059 0.1054,-0.4642l0.002 -0.2027c0.1077,-0.4727 0.1056,-0.7647 -0.006,-0.8679 -0.083,-0.0788 -0.2036,-0.0684 -0.3319,-0.0573 -0.0567,0.0048 -0.1755,0.0152 -0.2065,-0.0024 -0.1639,-0.1163 -0.2464,-0.3988 -0.2464,-0.5239 0,-0.083 0.067,-0.2302 0.1234,-0.3224 0.1283,0.1233 0.3007,0.2868 0.4966,0.2846 0.2103,-0.0028 0.3591,-0.0593 0.443,-0.168 0.0347,-0.0451 0.07,-0.1151 0.07,-0.2133 0,-0.0344 -0.0042,-0.0725 -0.0145,-0.1145 -0.0155,-0.0608 -0.0226,-0.1225 -0.0226,-0.1902 0,-0.1099 0.0184,-0.2361 0.0488,-0.4017 0,-0.0007 0.1552,-0.5658 0.1552,-0.5658l-0.1532 -0.0617c-0.0907,-0.0233 -0.2308,-0.0887 -0.2576,-0.1514 -0.0633,-0.1469 -0.0998,-0.2965 -0.0998,-0.3962 0,-0.0336 0.004,-0.0615 0.0128,-0.082 0.058,-0.1399 0.2199,-0.3133 0.3407,-0.4175l0.0527 0.2396c0.1293,0.191 0.4849,0.2174 0.5908,0.2208l0.1638 0.0053 0.0038 -0.1657c0,-0.0013 0.0041,-0.134 0.0997,-0.2296l0.2986 -0.3388 -0.0787 -0.0789 -0.2579 -0.386c-0.0045,-0.0081 -0.0069,-0.0226 -0.0069,-0.0417 0,-0.0877 0.0543,-0.2742 0.2284,-0.4164 0.1154,-0.0947 0.232,-0.1527 0.3277,-0.1918 -0.0066,0.0587 -0.014,0.1288 -0.014,0.1288l0.0973 0.1919c0.1242,0.1077 0.365,0.1755 0.5364,0.1509l0.283 -0.0656 0.2565 -0.056 0.7612 0.0141 -0.1381 -0.2472c-0.0657,-0.1161 -0.1201,-0.2647 -0.1201,-0.3235 0,-0.0044 0.0003,-0.0086 0.001,-0.0124 0.0627,-0.0706 0.0931,-0.1081 0.3364,-0.1743 0.1497,-0.0415 0.2266,-0.0556 0.2791,-0.0623 -0.0059,0.073 -0.0121,0.1508 -0.0121,0.1508 0.0657,0.1992 0.3058,0.3415 0.5075,0.4429 0.0009,0.0004 0.2827,0.0966 0.2827,0.0966 0.1354,0.0343 0.192,0.0514 0.2372,0.1313 0.0248,0.0448 0.0341,0.1273 0.0356,0.2086 -0.2649,-0.0105 -0.7848,-0.0241 -0.9427,0.0212 -0.1673,0.0474 -0.5483,0.2766 -0.683,0.3593 -0.1897,-0.0231 -0.6377,-0.031 -0.8834,0.1065 -0.2032,0.1126 -0.2892,0.3304 -0.2892,0.551 0,0.1122 0.0223,0.2252 0.0622,0.3254 0.083,0.2076 0.2963,0.3895 0.4219,0.484 -0.0737,0.3339 -0.1752,0.7015 -0.2322,0.7824 -0.0581,0.0806 -0.08,0.1883 -0.08,0.3058 0,0.2713 0.1172,0.5939 0.1835,0.7545 0.1519,0.3633 1.1028,0.7996 1.2897,0.7996 0.0609,0.0119 0.2615,0.1774 0.3939,0.2866 0.1842,0.1521 0.3743,0.3087 0.5338,0.3745 0.291,0.1221 1.3629,0.115 1.679,0.1104 0.0778,0.0499 0.2151,0.1459 0.2868,0.2332 0.0872,0.104 0.2329,0.4973 0.2827,0.9669 0.0563,0.5433 0.2847,0.8544 0.7629,1.0399 0.2939,0.1145 0.4864,0.0034 0.6036,-0.0746 0.001,0.0155 0.0046,0.0229 0.0046,0.0415 0,0.2045 -0.0636,0.5709 -0.1386,0.6983 -0.0832,0.1415 -0.1816,0.2271 -0.2924,0.255 -0.1958,0.0496 -0.4086,-0.0789 -0.5109,-0.1407 -0.0552,-0.0333 -0.1703,-0.1026 -0.2638,-0.0014 -0.0292,0.0318 -0.044,0.067 -0.044,0.1059 0,0.0431 0.0185,0.0908 0.055,0.1419 0.1042,0.1468 0.1314,0.2469 0.1314,0.362 0,0.0537 -0.006,0.1107 -0.0128,0.177l-0.0092 0.0936c-0.0085,0.0926 -0.06,0.1881 -0.1146,0.2888 -0.0674,0.1246 -0.1425,0.2638 -0.1425,0.4224 0,0.0172 0.0009,0.0346 0.0028,0.0525 0.0291,0.2763 0.2181,0.4298 0.3872,0.5054 -0.0474,0.1309 -0.1552,0.327 -0.4232,0.4079 -0.3409,0.1027 -0.3755,0.0403 -0.5188,-0.2222l-0.0211 -0.0391c-0.0882,-0.1609 -0.0868,-0.2485 -0.0849,-0.3696 0.0019,-0.1167 0.0043,-0.2615 -0.0737,-0.4706 -0.1638,-0.4371 -0.4299,-0.3924 -0.7119,-0.3454l-0.2434 0.0351c-0.1542,0.0159 -0.1817,0.1487 -0.1817,0.3893 0,0.0595 0.0017,0.1249 0.0037,0.1973l-0.0017 0.3355c-0.0088,0.0777 -0.015,0.1511 -0.015,0.2291 0,0.1566 0.026,0.3326 0.1149,0.599 0.0918,0.2769 0.2889,0.3692 0.4069,0.4244 0,0 0.0122,0.0062 0.0227,0.0117 -0.0325,0.1445 -0.1123,0.2279 -0.3994,0.2882 -0.3965,0.0835 -0.5883,-0.0521 -0.7102,-0.1799 -0.0905,-0.095 -0.1299,-0.2945 -0.1685,-0.4876l-0.056 -0.2524c-0.03,-0.1113 -0.0222,-0.3156 -0.0153,-0.4961 0.0098,-0.2564 0.0134,-0.4192 -0.0348,-0.5322 -0.0823,-0.1933 -0.3356,-0.4348 -0.5037,-0.4293 -0.3931,0.0141 -0.643,1.2755 -0.6559,1.475 -0.0016,0.0266 -0.0023,0.0524 -0.0023,0.0772 0,0.3025 0.1161,0.4677 0.2231,0.5896 -0.1199,0.0565 -0.3218,0.1208 -0.4868,0.0822 -0.3955,-0.0908 -0.4971,-0.6176 -0.5221,-0.9236 -0.0198,-0.2386 0.0742,-0.496 0.1652,-0.7447l0.0191 -0.0522c0.0519,-0.143 0.031,-0.294 -0.0601,-0.4372 -0.0992,-0.1562 -0.284,-0.2926 -0.4122,-0.304 -0.2968,-0.021 -0.6308,0.7119 -0.6637,0.8907 -0.0717,0.385 -0.1867,0.7995 -0.6411,0.8415 -0.2782,0.0245 -0.6269,-0.2691 -0.7893,-0.4603zm-5.302 5.3418l0 0c-0.438,-1.7525 0.6041,-3.2738 1.1634,-4.091l0.1573 -0.232c1.2809,-1.9416 0.555,-3.9512 0.5231,-4.0356l-0.0413 -0.1113 -0.1189 0.006c-0.432,0.0222 -0.9694,-0.2038 -1.0499,-0.5633 0,-0.0003 -0.035,-0.1614 -0.035,-0.1614 -0.054,-0.2522 -0.0897,-0.4187 -0.2427,-0.6141l-0.1154 -0.1522c-0.1779,-0.2377 -0.2954,-0.383 -0.398,-0.4491 0.007,-0.0153 0.0316,-0.0596 0.1559,-0.1316l0.1388 -0.0832c0.2671,-0.1619 0.5695,-0.3454 0.945,-0.3624 0.6626,-0.0312 1.1367,0.1119 1.4474,0.4368 0.3382,0.3519 0.5034,0.7557 0.4778,1.1679 -0.0416,0.6807 -0.4595,0.8606 -0.4776,0.8678l-0.148 0.0613 0.0631 0.1597c0.0083,0.0205 0.6581,2.3096 -0.5275,4.0682l-0.0258 0.038c-0.6303,0.9342 -1.8034,2.6729 -1.2225,4.2657 0.616,1.6818 2.1084,1.7645 2.5647,1.7486 0.073,0.2064 0.2122,0.5157 0.3101,0.7255 -0.7185,0.0266 -2.9315,-0.0966 -3.544,-2.5583zm7.1411 10.933l0 0c-0.1112,-0.0106 -0.1235,-0.0258 -0.2151,-0.2621 -0.1965,-0.5085 -0.6054,-1.5655 -3.2742,-3.513 -0.2022,-0.1475 -0.3052,-0.3025 -0.3063,-0.462 -0.0012,-0.1774 0.1277,-0.3717 0.3626,-0.5478 1.1653,-0.8726 1.1419,-1.8093 1.0535,-2.3164 0.3831,0.2818 0.5108,0.618 0.5419,0.8722 0.056,0.4541 -0.1414,0.8548 -0.2925,0.9826 -0.4457,0.3779 -0.7604,0.6711 -0.7442,1.0025 0.0141,0.299 0.2935,0.5505 0.7386,0.8599 0.7316,0.5064 1.6564,1.2806 2.0572,1.9355 0.0002,0.0003 0.1998,0.3441 0.1998,0.3441 0.1616,0.2818 0.3716,0.6463 0.5619,0.9271 -0.2902,0.143 -0.5636,0.1895 -0.6832,0.1774zm2.926 -12.6113l0 0c-1.3567,0.9809 -1.5419,2.1698 -1.6328,2.8309 -0.4792,-0.0023 -0.8363,0.077 -0.8524,0.0807 -0.0871,0.0202 -0.1413,0.107 -0.1216,0.1944 0.0202,0.0871 0.1069,0.1419 0.194,0.1219 0.0041,-0.001 0.4057,-0.0908 0.911,-0.0708l0.0008 0c1.2541,0.0691 1.8544,0.6548 1.8353,1.7918 -0.0089,0.63 -0.6959,1.3111 -1.1003,1.6142 -0.0004,0.0004 -0.728,0.4165 -0.728,0.4165 -0.5884,0.3087 -0.9842,0.5268 -1.1245,0.7373 -0.0921,0.1378 -0.0628,0.3207 0.0865,0.5422 0.4136,0.6157 1.9544,1.7408 2.3806,1.6537 0.3056,-0.0624 0.9105,0.052 1.2018,0.3793 0.3231,0.3614 0.4537,0.6749 0.3886,0.9326 -0.0553,0.2194 -0.2456,0.3617 -0.3776,0.4365 -0.1118,-0.2257 -0.3516,-0.637 -0.703,-0.8427 -0.077,-0.0451 -0.1763,-0.0196 -0.2215,0.0575 -0.0451,0.0775 -0.0196,0.1771 0.0577,0.2222 0.2696,0.1585 0.4675,0.4927 0.5666,0.688l-0.0066 0.0021 0.0848 0.1647c0.062,0.1199 0.0358,0.3435 -0.1024,0.4861 -0.1875,0.1936 -0.521,0.1974 -0.9429,0.0179 0.0223,-0.3176 -0.279,-0.8248 -0.6316,-1.1545 -0.0657,-0.0616 -0.1683,-0.0582 -0.2291,0.0076 -0.0613,0.0651 -0.0579,0.1678 0.0074,0.2288 0.3876,0.3627 0.5626,0.8127 0.5326,0.905 -0.0022,0.0065 -0.0016,0.0138 -0.0029,0.0207 -0.2198,0.1802 -0.8763,0.258 -1.3614,-0.0906 -0.1994,-0.2719 -0.4487,-0.707 -0.6323,-1.0281l-0.2048 -0.3527c-0.538,-0.8782 -1.781,-1.7777 -2.1491,-2.0323 -0.4137,-0.287 -0.5929,-0.4689 -0.5996,-0.6091 -0.0081,-0.165 0.2248,-0.3962 0.6299,-0.739 0.2465,-0.2084 0.4722,-0.7245 0.405,-1.2705 -0.0473,-0.3852 -0.2601,-0.9178 -0.987,-1.2875l-0.7106 -0.7647c-0.1524,-0.318 -0.382,-0.8248 -0.4189,-0.9824 -0.1657,-0.852 0.2023,-1.5736 0.9386,-2.6057 0.1928,-0.2698 0.5793,-0.9593 0.9204,-1.5674l0.5733 -0.992c0.208,-0.3009 0.2907,-0.8091 0.3167,-1.0526 0.6112,-0.143 0.7392,-0.7862 0.7934,-1.0754 0.0305,-0.1654 0.2427,-0.5219 0.3425,-0.6098 0.0379,0.0231 0.1142,0.0809 0.156,0.164 0.0168,0.033 0.0221,0.0596 0.0221,0.0814 0,0.0185 -0.004,0.0331 -0.0081,0.0447l-0.0189 0.0517c-0.0884,0.2421 -0.1876,0.5133 -0.1876,0.7913 0,0.0305 0.0012,0.061 0.0038,0.0914 0.0561,0.681 0.3302,1.1118 0.7717,1.2129 0.3221,0.0753 0.8194,-0.0904 0.926,-0.2646l0.0632 -0.1025 -0.0754 -0.12 -0.0658 -0.0738c-0.0996,-0.1088 -0.1866,-0.2038 -0.1866,-0.4254 0,-0.0186 0.0005,-0.0379 0.0018,-0.0582 0.0225,-0.354 0.2468,-1.0062 0.3663,-1.149 0.0371,0.0319 0.1313,0.1151 0.1713,0.2102 0.0115,0.0266 0.0149,0.0939 0.0149,0.1712 0,0.0732 -0.0031,0.1555 -0.0056,0.2213 -0.0033,0.086 -0.0066,0.173 -0.0066,0.2567 0,0.1243 0.0074,0.2416 0.0329,0.3371 0.0003,0.0009 0.051,0.2301 0.051,0.2301 0.0472,0.2384 0.0961,0.4849 0.2522,0.6491 0.1851,0.1931 0.4079,0.2895 0.6707,0.3002 0.0105,0.008 0.0214,0.0174 0.0314,0.0231l0.1311 0.0737c0.1722,0.1101 0.444,0.2791 0.8793,0.2681 -0.2055,0.3898 -0.7283,1.1844 -1.3177,1.6105zm8.0377 -7.8243l0 0c-0.0454,0.0903 -0.1589,0.1028 -0.3317,0.0445 -0.0784,-0.2359 -0.3191,-0.3644 -0.5008,-0.4593l-0.1576 -0.092c-0.0768,-0.0446 -0.1967,-0.0337 -0.242,0.0426 -0.0453,0.0766 -0.0415,0.1607 0.0348,0.2069l0.2146 0.1298c0.1461,0.0765 0.3283,0.1718 0.3512,0.2948 0.0045,0.0237 0.0149,0.0446 0.0279,0.0633 -0.0358,0.2104 -0.1118,0.3492 -0.2311,0.4049 -0.2536,0.1186 -0.6787,-0.0977 -0.8208,-0.1912l-0.0786 -0.0517 -0.0842 0.0425c-0.0067,0.0037 -0.7133,0.3614 -1.1606,0.3585l-0.0975 -0.0007 -0.8384 1.5591 -0.1829 0.3369c-0.42,0.7852 -1.6985,3.1747 -2.3689,3.1747l-0.1352 0 -0.0031 0.0172c-0.2884,0.0336 -0.4901,-0.0267 -0.6437,-0.1053 0.2396,-0.0764 0.4432,-0.2185 0.4933,-0.5622 0.0019,-0.0145 0.0029,-0.0281 0.0029,-0.0412 0,-0.1578 -0.1426,-0.2246 -0.2218,-0.2616 -0.097,-0.0457 -0.1886,-0.0884 -0.2367,-0.2331 -0.0758,-0.2269 -0.098,-0.3683 -0.098,-0.4978 0,-0.0637 0.0055,-0.1251 0.0129,-0.1922l0.0033 -0.3792c0,0 0.0024,-0.1846 0.0034,-0.2726 0.0712,-0.0102 0.1475,-0.0213 0.1475,-0.0213 0.2797,-0.0464 0.285,-0.0473 0.355,0.1391 0.0567,0.1519 0.0551,0.2444 0.0534,0.3517 -0.0022,0.138 -0.0048,0.2946 0.1247,0.5311 0,0.0005 0.0208,0.0387 0.0208,0.0387 0.1492,0.2731 0.3036,0.5552 0.8965,0.3771 0.6087,-0.1836 0.6866,-0.7786 0.6895,-0.8037l0.0181 -0.1528 -0.153 -0.0264c-0.027,-0.0046 -0.2661,-0.0522 -0.29,-0.2754 -0.0007,-0.0059 -0.0011,-0.0121 -0.0011,-0.0179 0,-0.0767 0.0484,-0.1659 0.1035,-0.2679 0.065,-0.1197 0.1382,-0.2553 0.1525,-0.4144l0.0089 -0.0882c0.0076,-0.071 0.0149,-0.1404 0.0149,-0.2119 0,-0.0584 -0.0138,-0.1213 -0.0276,-0.1841 0.1263,0.0389 0.2634,0.0696 0.4151,0.0315 0.1976,-0.0498 0.3631,-0.1864 0.4923,-0.4048 0.1287,-0.2193 0.251,-0.9001 0.1418,-1.1169 0.0004,0.0007 -0.1712,-0.1549 -0.1712,-0.1549l-0.2646 0.0791c-0.0956,0.0658 -0.1783,0.1228 -0.338,0.0603 -0.0609,-0.0236 -0.1136,-0.0498 -0.1631,-0.0777 0.3762,-0.3531 1.3935,-1.2906 1.7231,-1.5362l0.0003 -0.0003c0.3989,-0.3001 1.2394,-0.8232 1.648,-0.96l0.1562 -0.0538c0.3259,-0.1141 0.4899,-0.1717 0.8461,-0.024 0.2615,0.1079 0.3313,0.4244 0.3483,0.638 -0.1648,-0.0479 -0.3867,-0.1025 -0.5389,-0.1025 -0.0897,0 -0.162,0.0725 -0.162,0.1621 0,0.0897 0.0723,0.1622 0.162,0.1622 0.1608,0 0.4862,0.0979 0.6259,0.1444 0.2108,0.148 0.3602,0.6354 0.2544,0.8442zm-6.912 -4.8857l0 0 0.2356 -0.0837 -0.1729 -0.181c-0.1673,-0.1759 -0.4031,-0.3854 -0.5743,-0.3854 -0.0674,0 -0.1699,0 -0.4611,0.5425 -0.0505,0.0925 -0.0248,0.1776 0.0165,0.226 0.0575,0.0677 0.1445,0.1698 0.9562,-0.1184z"/>
   <path id="_42725240" class="fil1" d="M49.6928 8.8544l0.0358 -0.164c0.0503,-0.2373 0.0734,-0.3457 0.1812,-0.4821 0,-0.0007 0.1189,-0.1573 0.1189,-0.1573 0.0899,-0.1207 0.2573,-0.3455 0.3159,-0.3808 0.0954,-0.0505 0.1533,-0.1435 0.155,-0.2487 0.0003,-0.0018 0.0003,-0.0035 0.0003,-0.0052 0,-0.1079 -0.0575,-0.2668 -0.3276,-0.4219l-0.1285 -0.0775c-0.2859,-0.1741 -0.6418,-0.3905 -1.1027,-0.4112 -0.7607,-0.0356 -1.3161,0.1396 -1.6957,0.5363 -0.461,0.4787 -0.5706,0.9606 -0.5706,1.3096 0,0.0355 0.0011,0.0699 0.0032,0.1027 0.0409,0.6463 0.3603,0.9458 0.5484,1.0704 -0.0144,0.0556 -0.0306,0.1273 -0.0496,0.2213 -0.0468,0.2276 -0.1216,0.6868 -0.1216,1.2564 0,0.8165 0.155,1.8601 0.7679,2.7704l0.0269 0.0398c0.4888,0.7245 1.3226,1.9596 1.3226,3.1712 0,0.2696 -0.0417,0.5383 -0.1372,0.7998 -0.5326,1.4557 -1.7683,1.5517 -2.1983,1.5393 0.0104,-0.0936 0.0272,-0.1878 0.0272,-0.2791 0,-0.7751 -0.3924,-1.4931 -1.038,-2.3979 -0.1822,-0.2555 -0.5643,-0.9362 -0.9015,-1.5369l-0.5902 -1.0182c-0.1488,-0.2153 -0.2298,-0.6375 -0.2567,-0.8649 0.4434,-0.0753 0.8665,-0.4926 0.9854,-0.6947 0.0382,-0.066 0.0578,-0.1261 0.0578,-0.1798 0,-0.0405 -0.0113,-0.0774 -0.0338,-0.1103 -0.043,-0.0642 -0.1202,-0.0947 -0.2063,-0.0816 -0.1998,0.032 -0.3786,-0.0474 -0.4251,-0.1885 -0.0476,-0.139 -0.0617,-0.3694 -0.0617,-0.5922 0,-0.2234 0.0141,-0.4232 0.0255,-0.5292 0.0248,0.0063 0.3638,0.0909 0.3638,0.0909 0.3431,0 0.5137,-0.2228 0.626,-0.3699l0.0527 -0.0665c0.1602,-0.1932 0.1574,-0.7222 0.0999,-0.852l-0.052 -0.1164 -0.0985 0.0064 -0.2178 0.0396c-0.0954,0.0274 -0.2139,0.0618 -0.2942,0.0415 -0.0665,-0.0165 -0.0996,-0.047 -0.1078,-0.0682 -0.0017,-0.005 -0.0024,-0.0105 -0.0024,-0.0167 0,-0.0222 0.0117,-0.052 0.0347,-0.0848 0.1448,-0.2113 0.2071,-0.5129 0.2491,-0.7128 0,0 0.009,-0.0418 0.0183,-0.0811 0.0165,0.001 0.0341,0.0028 0.0341,0.0028l0.4265 -0.0145c0.3841,-0.0963 0.4751,-0.3595 0.5295,-0.5988 0.0534,-0.2383 -0.0475,-0.5513 -0.1402,-0.6626l-0.0799 -0.0965 -0.0817 0.0179 -0.2208 0.1044 -0.1781 0.1032c-0.0789,0.0221 -0.1141,0.0124 -0.2339,-0.1058 -0.0114,-0.0113 -0.0148,-0.051 -0.0148,-0.0959 0,-0.0407 0.0027,-0.0858 0.0048,-0.1177l-0.0104 -0.295c-0.0496,-0.2245 -0.0699,-0.4167 -0.0699,-0.5208 0,-0.0058 0.0007,-0.0069 0.001,-0.012 0.0317,0.0014 0.0641,0.0027 0.0641,0.0027 0.134,0.0114 0.3004,0.0257 0.4217,-0.0606 0.2639,-0.1876 0.3828,-0.5741 0.3828,-0.7888 0,-0.1922 -0.152,-0.5384 -0.2846,-0.6495 -0.0703,-0.0577 -0.1354,-0.0607 -0.1774,-0.0531 -0.0007,0.0002 -0.2002,0.1387 -0.2002,0.1387 -0.0634,0.0608 -0.2102,0.2026 -0.278,0.2019 -0.1302,-0.0019 -0.1816,-0.0311 -0.1902,-0.0421 -0.001,-0.0015 -0.0024,-0.0063 -0.0024,-0.0144 0,-0.0085 0.0014,-0.0205 0.0055,-0.0364 0.0221,-0.0887 0.0321,-0.1755 0.0321,-0.2682 0,-0.134 -0.0207,-0.2802 -0.0535,-0.4611 0,0 -0.0482,-0.1731 -0.0871,-0.3116 0.1154,-0.0505 0.2577,-0.1347 0.32,-0.2803 0.0448,-0.1031 0.1261,-0.3212 0.1261,-0.5248 0,-0.0727 -0.0107,-0.1435 -0.0368,-0.2066 -0.1006,-0.2409 -0.5147,-0.6954 -0.7307,-0.7026l-0.1392 -0.0046 -0.0372 0.1078 -0.0572 0.3014 -0.0041 0.075c-0.0176,0.016 -0.1003,0.0351 -0.1923,0.0496 -0.0258,-0.0853 -0.0706,-0.1875 -0.1612,-0.2782 0,0 -0.0572,-0.0636 -0.1065,-0.1187 0.0672,-0.1015 0.1678,-0.2525 0.1678,-0.2525 0.052,-0.0653 0.0758,-0.1511 0.0758,-0.2464 0,-0.2201 -0.1282,-0.489 -0.3445,-0.6659 -0.1116,-0.0918 -0.6063,-0.4282 -0.8038,-0.2682l-0.0868 0.0708 0.041 0.1576 -0.0086 -0.0258c0,0 0.0093,0.1469 0.0134,0.2084 -0.0472,0.0336 -0.1736,0.0796 -0.2628,0.0667l-0.2467 -0.0576 -0.3386 -0.067c0,0 -0.1144,0.0021 -0.2285,0.0044 0.0269,-0.0783 0.0493,-0.1604 0.0493,-0.2369 0,-0.0727 -0.0172,-0.1402 -0.0603,-0.1952 -0.125,-0.1554 -0.2215,-0.2244 -0.516,-0.3042 -0.2956,-0.0822 -0.532,-0.1338 -0.6481,0.0074 -0.0351,0.0421 -0.0827,0.1337 -0.0134,0.2739 0.0004,0.0009 0.0348,0.0823 -0.3438,0.2732 -0.0004,0 -0.215,0.0722 -0.215,0.0722 -0.153,0.0386 -0.3252,0.0825 -0.4396,0.2864 -0.0634,0.1139 -0.0789,0.2655 -0.0789,0.3847 0,0.0071 0.001,0.0079 0.001,0.0148 -0.2173,0.0224 -0.8426,0.0865 -0.8426,0.0865l-0.5957 0.4146c0.0011,-0.0009 -0.1894,0.1189 -0.5202,0.1189 -0.2339,0 -0.7242,0.1302 -1.1458,0.2559 -0.09,-0.2742 -0.2949,-0.7128 -0.666,-0.947 -0.2049,-0.1301 -0.4296,-0.1694 -0.6673,-0.1323 -0.0958,-0.0803 -0.2918,-0.2147 -0.5446,-0.2109 -0.1885,0.0029 -0.3611,0.0968 -0.5227,0.2458 -0.2973,-0.1567 -0.6924,-0.237 -0.9718,-0.0875 -0.1778,0.0949 -0.2777,0.2672 -0.2808,0.4851l0 0.0046c0,0.2107 0.1705,0.3976 0.3352,0.5783 0.0875,0.0956 0.1864,0.2039 0.2122,0.2739 0.0107,0.0279 0.0148,0.0592 0.0148,0.0934 0,0.0904 -0.0303,0.1996 -0.0627,0.3135 0,0 -0.0262,0.1152 -0.0475,0.2096 -0.1209,0.0408 -0.3387,0.133 -0.6463,0.3543 -0.063,0.0457 -0.1574,0.1432 -0.1574,0.3182 0,0.0339 0.0034,0.071 0.0113,0.1109 0.0638,0.3166 0.441,0.7869 0.6232,0.8291 0.2291,0.0508 0.4741,0.202 0.5719,0.2751 0.3104,0.2291 0.6277,0.1602 0.8361,0.0544 0.1527,0.2191 0.4993,0.7521 0.7297,1.3773 -0.4265,-0.2814 -0.9987,-0.6195 -1.347,-0.7362l-0.1523 -0.0527c-0.3528,-0.123 -0.6074,-0.2119 -1.0769,-0.0175 -0.4992,0.2063 -0.5547,0.8061 -0.5547,1.0597 0,0.0193 0.001,0.0191 0.001,0.0339 -0.2218,0.1969 -0.3713,0.5555 -0.3713,0.8707 0,0.1223 0.0217,0.2364 0.0682,0.3301 0.0548,0.1071 0.228,0.3032 0.6105,0.2242 0.0654,0.2653 0.1815,0.4679 0.3786,0.5596 0.3868,0.1798 0.8668,-0.0569 1.0552,-0.1665 0.1743,0.0841 0.6842,0.3075 1.1207,0.3408 0.0696,0.13 0.7579,1.4081 0.7579,1.4081 0.0003,0.0004 0.1781,0.3284 0.1781,0.3284 0.8802,1.6447 1.7904,3.156 2.5291,3.3161 0.1471,0.399 0.8092,1.425 1.5079,1.9304 1.2416,0.8975 1.4104,1.9515 1.5,2.6035 -1.2781,0.1302 -1.9703,0.8202 -1.9703,2.0408 0,0.0152 0.0004,0.0307 0.0007,0.0465 0.0131,0.9304 1.1066,1.7762 1.2306,1.8692l0.7707 0.443c0.4024,0.2112 0.9026,0.4734 1.0073,0.6305 -0.0014,0 0.0052,0.0988 -0.2256,0.36 -0.5726,0.6494 -1.7122,1.3542 -1.91,1.3381 -0.3803,-0.0769 -1.1176,0.0461 -1.5058,0.4813 -0.3235,0.3631 -0.4872,0.7044 -0.4872,1.0169 0,0.0731 0.009,0.1447 0.0272,0.215 0.0941,0.3679 0.4073,0.5729 0.5857,0.6639 -0.009,0.0437 -0.03,0.083 -0.03,0.1292 0,0.2012 0.081,0.4134 0.2288,0.5653 0.1726,0.1767 0.5781,0.4045 1.3422,0.0658 0.3662,0.2625 1.0825,0.2891 1.634,-0.0616 0.3614,0.2022 0.7321,0.2855 0.9508,0.2638 0.3163,-0.032 0.3911,-0.2249 0.4848,-0.4685 0.1857,-0.4792 0.5705,-1.4766 3.1612,-3.3672 0.3621,-0.2639 0.4392,-0.5389 0.4403,-0.7232l0 -0.0044c0,-0.285 -0.1699,-0.563 -0.4927,-0.8038 -0.7899,-0.5926 -0.9598,-1.1985 -0.9598,-1.6519 0,-0.224 0.041,-0.4106 0.0696,-0.5395 0,0 0.0072,-0.0565 0.0148,-0.1134 0.0462,-0.0494 0.5802,-0.6226 0.6636,-0.7117 0.4978,0.0358 3.3183,0.1083 4.0421,-2.7935 0.0799,-0.3217 0.1151,-0.6349 0.1151,-0.9374 0,-1.4809 -0.84,-2.7049 -1.3299,-3.4189l-0.1512 -0.2239c-0.5478,-0.8298 -0.6959,-1.686 -0.6959,-2.3697 0,-0.6114 0.1175,-1.0795 0.1747,-1.2737 0.5419,-0.0177 1.142,-0.3095 1.2547,-0.8115zm-9.9484 -7.1506l0 0c0.0454,-0.0796 0.1016,-0.0965 0.2366,-0.1308l0.2815 -0.0962c0.1413,-0.0715 0.5278,-0.2667 0.5278,-0.5499 0,-0.0131 -0.0083,-0.0282 -0.01,-0.0417 0.0541,0.0088 0.1278,0.024 0.2563,0.0596 0.2453,0.0667 0.2756,0.1041 0.3476,0.1942 -0.0007,0.0277 -0.0578,0.1912 -0.1281,0.3166l-0.1385 0.2466 0.76 -0.0139 0.2552 0.0556 0.2843 0.066c0.1726,0.0246 0.4137,-0.0432 0.5381,-0.1512l0.0972 -0.1916c0,0 -0.0073,-0.0693 -0.0131,-0.1283 0.095,0.0393 0.2108,0.0973 0.3255,0.1912 0.1726,0.1411 0.2281,0.3257 0.2281,0.4156 0,0.0207 -0.0031,0.0362 -0.008,0.0452 0.0015,-0.0019 -0.2563,0.3829 -0.2563,0.3829l-0.0696 0.1039 0.0741 0.0704 0.215 0.2436c0.0961,0.0961 0.1002,0.2287 0.1002,0.2299l0.0038 0.1638 0.1637 -0.0034c0.1061,-0.0034 0.463,-0.0298 0.5898,-0.22 0,-0.001 0.0524,-0.2325 0.0541,-0.2399 0.1209,0.1042 0.2828,0.2771 0.341,0.4167 0.0083,0.0198 0.0121,0.047 0.0121,0.0801 0,0.0995 -0.0362,0.2506 -0.0999,0.3984 -0.0266,0.0627 -0.1661,0.1283 -0.256,0.1514l-0.1602 0.041 0.05 0.1792 0.1126 0.4073c0.0296,0.1621 0.0476,0.2898 0.0476,0.4012 0,0.068 -0.0069,0.1301 -0.0214,0.1903 -0.0107,0.0423 -0.0152,0.0808 -0.0152,0.1155 0,0.0974 0.0345,0.1672 0.0693,0.2122 0.0834,0.1088 0.2329,0.1657 0.4423,0.1685 0.1964,0.0022 0.3697,-0.1609 0.4972,-0.2845 0.0561,0.0919 0.123,0.2393 0.123,0.3223 0,0.1253 -0.082,0.4081 -0.2457,0.5246 -0.0299,0.0169 -0.1498,0.0065 -0.2067,0.0017 -0.1278,-0.0111 -0.2487,-0.0214 -0.3338,0.0584 -0.1092,0.1021 -0.1113,0.3937 -0.0055,0.8662 0.0003,0.0006 0.0031,0.2038 0.0031,0.2038 -0.0097,0.158 -0.0204,0.3364 0.1047,0.463 0.1378,0.1361 0.2922,0.2612 0.5509,0.1883 0.0007,-0.0002 0.2057,-0.1128 0.2611,-0.1428 0.0224,0.0638 0.0424,0.142 0.0424,0.2214 0,0.0251 -0.0021,0.0494 -0.0069,0.0714 -0.0465,0.2031 -0.0909,0.3051 -0.2925,0.3556l-0.3083 0.007c-0.1055,-0.0129 -0.2505,-0.0308 -0.3366,0.0963 0,0.0007 -0.0724,0.2379 -0.0724,0.2379 -0.0368,0.1745 -0.0912,0.4381 -0.1987,0.5955 -0.091,0.1323 -0.1154,0.2744 -0.0672,0.4 0.0489,0.1302 0.1698,0.2277 0.3307,0.2677 0.1606,0.0408 0.3269,-0.0068 0.4524,-0.0426 0,0.0066 0.0013,0.0088 0.0013,0.0157 0,0.1411 -0.0217,0.3359 -0.062,0.3859l-0.0603 0.0769c-0.1154,0.151 -0.1977,0.2428 -0.3686,0.2428l-0.2474 -0.0672c-0.0923,-0.0405 -0.1981,-0.0862 -0.3042,-0.0253 -0.0968,0.0552 -0.1202,0.1609 -0.1288,0.2356 -0.0007,0.0043 -0.0327,0.2978 -0.0327,0.627 0,0.2439 0.0175,0.5075 0.0775,0.6878 0.0775,0.2314 0.2994,0.3661 0.5601,0.3945 -0.1618,0.191 -0.5112,0.4849 -0.7903,0.4606 -0.454,-0.0422 -0.5691,-0.4565 -0.6411,-0.8416 -0.0334,-0.1787 -0.3655,-0.9116 -0.659,-0.8908 -0.1323,0.0116 -0.3177,0.1482 -0.4165,0.3048 -0.0896,0.141 -0.1106,0.2962 -0.0586,0.4373 0,-0.0007 0.0169,0.0474 0.0169,0.0474 0.0909,0.2499 0.1857,0.5086 0.1657,0.7488 -0.0262,0.306 -0.1282,0.8333 -0.5199,0.9234 -0.1664,0.0386 -0.3693,-0.0255 -0.4888,-0.082 0.1064,-0.1219 0.2229,-0.287 0.2229,-0.5898 0,-0.0244 -0.0007,-0.0501 -0.0021,-0.0765 -0.0124,-0.1996 -0.2612,-1.4614 -0.6559,-1.4755 -0.1675,-0.0055 -0.4217,0.2355 -0.5044,0.4293 -0.0482,0.1128 -0.0445,0.2742 -0.0345,0.5285 0.0076,0.1817 0.0155,0.3873 -0.0155,0.5 -0.0003,0.0007 -0.0541,0.2468 -0.0541,0.2468 -0.0385,0.1954 -0.0778,0.3969 -0.1708,0.4934 -0.1113,0.1178 -0.3066,0.2642 -0.7087,0.1795 -0.2856,-0.0601 -0.3672,-0.1463 -0.4,-0.288 0.0111,-0.0057 0.0234,-0.0121 0.0234,-0.0121 0.1169,-0.055 0.3129,-0.1471 0.4059,-0.4241 0.0899,-0.2658 0.1157,-0.4413 0.1157,-0.5967 0,-0.0794 -0.0068,-0.1536 -0.0162,-0.2322l-0.0013 -0.3371c0.002,-0.0737 0.0041,-0.1402 0.0041,-0.2003 0,-0.2372 -0.0272,-0.3681 -0.1815,-0.384l-0.2422 -0.0351c-0.2829,-0.047 -0.5502,-0.0917 -0.7128,0.3455 -0.0782,0.2088 -0.0758,0.3538 -0.0737,0.4703 0.0017,0.1211 0.0034,0.2086 -0.0851,0.37 0,0.0003 -0.0207,0.038 -0.0207,0.038 -0.1437,0.2631 -0.1768,0.326 -0.5192,0.2231 -0.2673,-0.0809 -0.3762,-0.2768 -0.4241,-0.4079 0.1699,-0.0756 0.3593,-0.2291 0.389,-0.5055 0.0013,-0.0174 0.0027,-0.0343 0.0027,-0.051 0,-0.1594 -0.0761,-0.2989 -0.1433,-0.4234 -0.0544,-0.101 -0.1064,-0.1966 -0.1154,-0.2892l-0.009 -0.0925c-0.0072,-0.0665 -0.0131,-0.1235 -0.0131,-0.1771 0,-0.1154 0.0276,-0.2157 0.1327,-0.3631 0.0372,-0.0512 0.0548,-0.0984 0.0548,-0.1418 0,-0.0388 -0.0142,-0.0741 -0.0438,-0.1059 -0.093,-0.1012 -0.2084,-0.0319 -0.2635,0.0014 -0.1024,0.0618 -0.3163,0.1903 -0.512,0.1407 -0.1106,-0.0281 -0.2091,-0.1137 -0.2925,-0.255 -0.0765,-0.1302 -0.1419,-0.5121 -0.1419,-0.7081 0,-0.0157 0.0031,-0.0215 0.0041,-0.0346 0.1161,0.0782 0.3108,0.1934 0.6084,0.0775 0.4779,-0.1859 0.7056,-0.497 0.7618,-1.0402 0.0485,-0.4657 0.1946,-0.8608 0.2818,-0.9669 0.0733,-0.0865 0.2105,-0.183 0.2886,-0.2329 0.316,0.0046 1.387,0.0114 1.6802,-0.1108 0.1578,-0.0652 0.3469,-0.2211 0.5295,-0.3722 0.1333,-0.1101 0.3352,-0.2768 0.4035,-0.2889 0,0 0,0 0.0003,0 0.1812,0 1.1304,-0.4365 1.2816,-0.7989 0.0661,-0.1595 0.1853,-0.4813 0.1853,-0.7536 0,-0.1175 -0.0224,-0.2257 -0.0809,-0.3075 -0.0576,-0.0811 -0.1592,-0.4484 -0.2316,-0.7819 0.1258,-0.0944 0.3373,-0.2761 0.4214,-0.4833 0.0403,-0.1003 0.0623,-0.2129 0.0623,-0.3249 0,-0.2211 -0.0864,-0.4396 -0.2904,-0.5526 -0.2449,-0.1364 -0.6942,-0.1288 -0.8836,-0.1061 -0.1348,-0.0827 -0.5147,-0.3119 -0.6825,-0.3593 -0.1588,-0.0453 -0.6767,-0.0317 -0.9419,-0.0212 0.0014,-0.0815 0.0107,-0.1638 0.0362,-0.2091zm-3.5268 1.4733l0 0c0.5878,-0.1805 1.0397,-0.2882 1.2082,-0.2882 0.4365,0 0.6918,-0.1683 0.7028,-0.1754 0,0 0.4692,-0.3264 0.5295,-0.3684 0.0761,-0.0078 0.9137,-0.0937 0.9137,-0.0937l0.1336 -0.0138c0.3635,-0.0145 0.7721,-0.0155 0.8561,0.0084 0.103,0.0292 0.4379,0.2218 0.6429,0.349l0.0548 0.0338 0.063 -0.0126c0.113,-0.0227 0.5678,-0.0272 0.7359,0.0669 0.1409,0.0778 0.154,0.3014 0.0861,0.4728 -0.0654,0.16 -0.3045,0.3426 -0.391,0.3993l-0.0923 0.0603 0.0213 0.1083c0.0279,0.1349 0.1733,0.8168 0.3087,1.0067 0.0458,0.0639 0.0221,0.3602 -0.1402,0.7479 -0.0827,0.1979 -0.8389,0.5784 -0.9963,0.6001 -0.1482,-0.0003 -0.3232,0.1375 -0.5957,0.3625 -0.1571,0.1292 -0.3349,0.2759 -0.4478,0.323 -0.1847,0.0769 -1.0047,0.0933 -1.5276,0.0859l0.001 -0.0093c-0.4151,-0.0358 -1.1152,-0.1042 -1.2288,-0.1364 -0.0772,-0.0362 -0.2629,-0.283 -0.3549,-0.4536 0.318,0.001 1.6457,0.005 1.6457,0.005l-0.0031 -1.1005 -1.5151 -0.0429 -0.3428 0.0122c-0.124,0.0126 -0.2411,0.0248 -0.2808,-0.0139 -0.0503,-0.071 -0.0971,-0.4861 -0.0971,-0.8885 0,-0.0038 0,-0.0655 0,-0.0655l-0.0327 -0.0434c-0.1241,-0.165 -0.2567,-0.3979 -0.2567,-0.4823 0,0 0.0276,-0.227 0.041,-0.34 0.1051,-0.0335 0.3014,-0.0958 0.3479,-0.1106l0.0107 -0.0031zm-1.7239 2.1017l0 0 -0.0999 -0.1306 -0.1306 0.103c-0.0299,0.0243 -0.3066,0.231 -0.5884,0.0226 -0.0338,-0.0255 -0.3486,-0.2538 -0.6935,-0.3304 -0.0648,-0.0422 -0.3704,-0.4007 -0.3821,-0.6138 -0.0027,-0.047 0.0124,-0.0577 0.0228,-0.0649 0.3889,-0.2806 0.6225,-0.3307 0.6249,-0.3313l0.1023 -0.0208 0.0893 -0.3872c0.0561,-0.1998 0.115,-0.4069 0.0396,-0.6084 -0.0483,-0.129 -0.1595,-0.2508 -0.2766,-0.3791 -0.1065,-0.1163 -0.2515,-0.2757 -0.2505,-0.3602 0.002,-0.1306 0.0627,-0.1785 0.1088,-0.2031 0.1299,-0.0691 0.357,-0.0519 0.5668,0.0303 0.0038,0.0059 0.0048,0.0126 0.0096,0.0181l0.1895 0.2367c0.1295,0.1557 0.1567,0.1881 0.2277,0.4616 0.0227,0.0868 0.1109,0.1387 0.1974,0.1163 0.0875,-0.0226 0.1392,-0.1113 0.1168,-0.1979 -0.0858,-0.3284 -0.1385,-0.4026 -0.2935,-0.5879l-0.0138 -0.0171c0.1116,-0.1149 0.2277,-0.1776 0.3445,-0.18 0.1309,-0.0028 0.2391,0.0629 0.3056,0.1126 0.0031,0.005 0.0041,0.0104 0.0076,0.015 0.1901,0.2453 0.177,0.4839 0.1764,0.4939 -0.0062,0.0887 0.0606,0.1662 0.1488,0.1729 0.0889,0.0068 0.1671,-0.0585 0.1743,-0.1473 0.0007,-0.011 0.0145,-0.2084 -0.0882,-0.4518 0.1096,0.0049 0.2129,0.035 0.3118,0.0977 0.2718,0.1721 0.451,0.5295 0.5302,0.7672l-0.3118 0.0989 -0.0995 0.0317 -0.0076 0.0894 -0.0576 0.4959c0,0.2098 0.195,0.5023 0.2894,0.6325 0.0014,0.3552 0.0296,0.9161 0.1926,1.0771 0.1471,0.147 0.3473,0.1265 0.5412,0.1068l0.2832 -0.0117c0.0004,0 0.8616,0.0245 1.2192,0.0348 0.0007,0.148 0.0011,0.3078 0.0014,0.4603 -0.2666,-0.0009 -1.6012,-0.0054 -1.6012,-0.0054l-0.0483 0.0577c-0.0517,0.0609 -0.062,0.1437 -0.031,0.2467 0.0641,0.2131 0.4013,0.7219 0.6246,0.7863 0.1088,0.0307 0.4982,0.0734 0.8265,0.1053 -0.0272,0.0257 -0.0527,0.0519 -0.0755,0.0785 -0.1547,0.1888 -0.3066,0.6786 -0.3541,1.1405 -0.0214,0.2061 -0.0676,0.359 -0.1496,0.4788 -0.3527,-0.3315 -1.3428,-1.2436 -1.7277,-1.5455 -0.2687,-1.0411 -0.9615,-1.9556 -0.9918,-1.9947zm4.0135 8.9007l0 0 -0.1364 -0.0077c-0.6697,0 -1.9489,-2.3904 -2.3699,-3.1759l-0.1826 -0.3361 -0.8385 -1.5582 -0.0975 0.0002c-0.4465,0.0029 -1.151,-0.3547 -1.1582,-0.3583l-0.0838 -0.0429 -0.0792 0.0519c-0.1423,0.0933 -0.5677,0.3098 -0.821,0.1912 -0.1202,-0.0557 -0.196,-0.1945 -0.2318,-0.4047 0.0131,-0.0186 0.0231,-0.0394 0.0275,-0.063 0.0242,-0.1232 0.205,-0.2184 0.3504,-0.2949l0.2146 -0.1307c0.0762,-0.0464 0.0796,-0.1301 0.0345,-0.2066 -0.0462,-0.0765 -0.1657,-0.0866 -0.2425,-0.0418l-0.1568 0.0919c-0.1809,0.0948 -0.4213,0.2233 -0.4999,0.4588 -0.1729,0.0585 -0.2866,0.046 -0.3328,-0.0449 -0.1051,-0.209 0.0455,-0.6969 0.257,-0.844 0.1385,-0.0465 0.4634,-0.1442 0.6253,-0.1442 0.0896,0 0.1623,-0.0725 0.1623,-0.1622 0,-0.0896 -0.0727,-0.1621 -0.1623,-0.1621 -0.1533,0 -0.3745,0.0544 -0.5392,0.1021 0.0169,-0.2134 0.0865,-0.5297 0.3477,-0.6378 0.3562,-0.1475 0.5198,-0.0899 0.8468,0.0242l0.1571 0.054c0.4051,0.1355 1.2461,0.6588 1.6478,0.96 0.3255,0.2441 1.3456,1.1832 1.7229,1.5361 -0.0497,0.0279 -0.102,0.0543 -0.1633,0.0779 -0.1592,0.0625 -0.2415,0.0055 -0.3373,-0.0602l-0.2656 -0.0792 -0.1719 0.1549c-0.1089,0.2187 0.0144,0.8981 0.1426,1.1167 0.1288,0.2184 0.2949,0.3549 0.4923,0.4048 0.1512,0.0383 0.2887,0.0076 0.4148,-0.0312 -0.0131,0.0631 -0.0273,0.1261 -0.0273,0.1847 0,0.0717 0.0076,0.1411 0.0149,0.2122l0.0082 0.0872c0.0145,0.1593 0.0886,0.295 0.153,0.4149 0.0551,0.1022 0.1041,0.1916 0.1041,0.2682 0,0.0059 -0.0008,0.0117 -0.0011,0.0174 -0.0237,0.2229 -0.2635,0.2705 -0.2911,0.2751l-0.1537 0.026 0.018 0.1539c0.0031,0.0251 0.0826,0.6195 0.6914,0.803 0.5939,0.1785 0.7479,-0.1056 0.8964,-0.3788l0.0203 -0.037c0.1296,-0.2364 0.1271,-0.3931 0.1247,-0.5312 -0.0013,-0.1072 -0.0031,-0.1995 0.0541,-0.3513 0.0689,-0.1869 0.0744,-0.186 0.3556,-0.1394 0,0 0.0744,0.0107 0.1467,0.0213 0.0007,0.088 0.0062,0.6519 0.0062,0.6519 0.008,0.0681 0.0138,0.1299 0.0138,0.1945 0,0.1283 -0.0227,0.2689 -0.0985,0.4949 -0.0489,0.1452 -0.1402,0.1879 -0.2374,0.2336 -0.0792,0.037 -0.2219,0.1042 -0.2219,0.2623 0,0.0124 0.0011,0.0253 0.0028,0.039 0.0493,0.3445 0.2536,0.4869 0.4937,0.5636 -0.1537,0.0787 -0.3556,0.139 -0.6442,0.1054l-0.0018 -0.0095zm7.7935 9.7794l0 0c0.2357,0.1757 0.3638,0.3704 0.3628,0.5471 -0.001,0.1595 -0.1044,0.3149 -0.3073,0.4627 -2.6669,1.9475 -3.0755,3.0045 -3.2722,3.513 -0.0913,0.2363 -0.1033,0.2515 -0.2153,0.2625 -0.1247,0.012 -0.3937,-0.0334 -0.6828,-0.1775 0.186,-0.2752 0.389,-0.6269 0.5578,-0.9225l0.2025 -0.3487c0.4007,-0.6542 1.3257,-1.4287 2.0578,-1.9358 0.4465,-0.3094 0.7255,-0.5609 0.74,-0.8599 0.0158,-0.3314 -0.2987,-0.6246 -0.7452,-1.0022 -0.1512,-0.1281 -0.3493,-0.5288 -0.2939,-0.9832 0.0314,-0.2542 0.1596,-0.5908 0.543,-0.8726 -0.0875,0.5053 -0.1123,1.4442 1.0528,2.3171zm-0.2181 -3.5363l0 0 -0.7124 0.7647c-0.7272,0.3697 -0.9395,0.9023 -0.9867,1.2875 -0.0675,0.546 0.1595,1.0621 0.4059,1.2705 0.4048,0.3428 0.6387,0.574 0.6308,0.739 -0.0069,0.1402 -0.1864,0.3218 -0.6005,0.6091 -0.368,0.2546 -1.6123,1.1555 -2.1494,2.0323l-0.2081 0.3576c-0.1826,0.3197 -0.4303,0.752 -0.628,1.0232 -0.4865,0.3476 -1.1431,0.2704 -1.3626,0.0906 -0.0014,-0.0069 -0.0007,-0.0142 -0.0031,-0.0207 -0.03,-0.0927 0.1451,-0.5419 0.5326,-0.905 0.0658,-0.061 0.0693,-0.1637 0.0076,-0.2288 -0.061,-0.0658 -0.1636,-0.0692 -0.2287,-0.0076 -0.3532,0.3297 -0.6546,0.8372 -0.6319,1.1545 -0.4217,0.1791 -0.7534,0.1757 -0.9412,-0.0172 -0.1391,-0.1427 -0.1667,-0.3669 -0.1047,-0.4875l0.0841 -0.164 -0.0062 -0.0021c0.0988,-0.1953 0.2973,-0.5295 0.5681,-0.688 0.0771,-0.0451 0.1036,-0.1447 0.0585,-0.2218 -0.0451,-0.0769 -0.1447,-0.1037 -0.2218,-0.0582 -0.3532,0.2056 -0.593,0.6173 -0.7049,0.843 -0.1323,-0.0748 -0.3218,-0.2171 -0.3769,-0.4362 -0.0648,-0.2577 0.0654,-0.5715 0.3886,-0.9329 0.2918,-0.3273 0.8975,-0.4413 1.2023,-0.3793 0.4262,0.0871 1.9675,-1.0387 2.381,-1.6537 0.1498,-0.2218 0.178,-0.4044 0.0864,-0.5422 -0.1402,-0.2105 -0.5371,-0.4293 -1.1262,-0.7383l-0.7269 -0.4155c-0.4055,-0.3031 -1.0931,-0.9842 -1.1014,-1.6142 -0.0158,-1.137 0.5853,-1.7227 1.8366,-1.7918l0.0007 0c0.5047,-0.02 0.9071,0.0698 0.9112,0.0708 0.0875,0.02 0.1747,-0.0348 0.1943,-0.1221 0.02,-0.0873 -0.0341,-0.174 -0.1216,-0.1942 -0.0162,-0.0037 -0.3749,-0.083 -0.8537,-0.0807 -0.091,-0.6611 -0.276,-1.85 -1.632,-2.8309 -0.5897,-0.4259 -1.1124,-1.2205 -1.3177,-1.6105 0.4351,0.011 0.7063,-0.158 0.8792,-0.2681l0.1306 -0.0737c0.011,-0.006 0.0224,-0.016 0.0337,-0.0246 0.2622,-0.0121 0.4878,-0.1091 0.6687,-0.2987 0.1564,-0.1652 0.2064,-0.4139 0.2532,-0.6546l0.0496 -0.2246c0.0262,-0.0951 0.0338,-0.2126 0.0338,-0.3369 0,-0.0849 -0.0035,-0.1737 -0.0069,-0.261 -0.0027,-0.0668 -0.0062,-0.1507 -0.0062,-0.2245 0,-0.0742 0.0035,-0.1383 0.0145,-0.1639 0.0368,-0.086 0.1199,-0.1601 0.1784,-0.2007 0.122,0.1559 0.3384,0.7903 0.3604,1.1396 0.001,0.0202 0.0014,0.0393 0.0014,0.0577 0,0.2214 -0.0862,0.3165 -0.1854,0.4251l-0.1457 0.1644 0.0672 0.1321c0.1054,0.1741 0.6025,0.3404 0.9264,0.2651 0.4392,-0.1008 0.7128,-0.5316 0.7703,-1.2125 0.0024,-0.0308 0.0038,-0.0618 0.0038,-0.0929 0,-0.279 -0.0992,-0.5512 -0.1881,-0.7942l-0.0176 -0.0477c-0.0038,-0.0119 -0.0079,-0.0269 -0.0079,-0.0459 0,-0.0215 0.0048,-0.048 0.0213,-0.0807 0.0407,-0.0795 0.1127,-0.1341 0.1602,-0.1606 0.101,0.0918 0.3087,0.4429 0.3383,0.6065 0.0545,0.2896 0.1823,0.9328 0.7938,1.0758 0.0258,0.2439 0.1085,0.7529 0.3169,1.0531l0.5736 0.9921c0.3411,0.608 0.728,1.297 0.9206,1.5668 0.7366,1.0321 1.1041,1.7537 0.9384,2.6064 -0.0372,0.1576 -0.2659,0.6637 -0.4186,0.9817zm2.125 -11.0817l0 0 -0.041 0.1113c-0.0317,0.0842 -0.7586,2.094 0.5219,4.0357l0.1551 0.2288c0.5605,0.8175 1.6047,2.3392 1.1672,4.0941 -0.6143,2.4617 -2.8264,2.5849 -3.5447,2.5583 0.0975,-0.2098 0.2367,-0.5191 0.3097,-0.7255 0.4565,0.0159 1.9479,-0.0665 2.5638,-1.7486 0.5823,-1.5916 -0.5905,-3.33 -1.2205,-4.2638l-0.0266 -0.0399c-1.1882,-1.7622 -0.536,-4.0473 -0.5278,-4.0678l0.06 -0.149 -0.1447 -0.0724c-0.0176,-0.007 -0.4358,-0.1872 -0.4785,-0.8681 -0.0256,-0.4128 0.1395,-0.8165 0.4774,-1.1672 0.3118,-0.3253 0.7852,-0.4684 1.4473,-0.4372 0.3786,0.0172 0.6815,0.2015 0.9481,0.3641l0.1361 0.0815c0.1247,0.0715 0.1495,0.1156 0.1564,0.1313 -0.1026,0.0661 -0.2194,0.2118 -0.3982,0.4504l-0.1141 0.1518c-0.1536,0.1944 -0.1888,0.3613 -0.2429,0.6139l-0.0344 0.1607c-0.0813,0.3598 -0.6184,0.5858 -1.0511,0.5636l-0.1185 -0.006zm-8.4336 -5.8002l0 0c0.041,-0.0484 0.0672,-0.1335 0.0162,-0.2268 -0.297,-0.5415 -0.3879,-0.5415 -0.4627,-0.5415 -0.1702,0 -0.4065,0.2094 -0.5753,0.3849l-0.1737 0.1815 0.2371 0.0837c0.8134,0.2882 0.9002,0.1861 0.9584,0.1182z"/>
  </g>
  <g id="_42118728">
   <path id="_42119000" class="fil1" d="M22.0542 5.9266l-0.6595 0.2085 -0.6637 -2.1109 -0.8162 0.2576 -0.1557 -0.4972c0.4617,-0.1357 0.8341,-0.427 0.7468,-0.9467l0.5258 -0.1648 1.0225 3.2535z"/>
   <path id="_42707576" class="fil1" d="M23.8161 3.2616c-0.0484,-0.3126 -0.2987,-0.5956 -0.6394,-0.5422 -0.3284,0.0494 -0.4672,0.3912 -0.4209,0.6945 0.0484,0.3182 0.261,0.6114 0.6122,0.5573 0.365,-0.056 0.4985,-0.3771 0.4481,-0.7096zm-0.8238 1.541l0 0c0.0781,0.2204 0.281,0.3866 0.5168,0.3499 0.4954,-0.0755 0.5259,-0.7454 0.488,-1.1252l-0.0115 -0.0079c-0.1465,0.2941 -0.3755,0.4424 -0.7029,0.492 -0.288,0.0444 -0.6025,-0.0453 -0.8268,-0.2284 -0.2103,-0.1792 -0.3343,-0.4469 -0.3753,-0.7108 -0.1052,-0.6892 0.2882,-1.3063 0.9898,-1.4138 1.0202,-0.1565 1.4306,0.6921 1.5609,1.5451 0.1261,0.8244 -0.0968,1.8201 -1.053,1.9656 -0.5825,0.0894 -1.0676,-0.1865 -1.2359,-0.7669l0.6499 -0.0996z"/>
   <path id="_42708360" class="fil1" d="M26.3743 4.9873c0.5629,0.0446 0.627,-0.7872 0.6573,-1.1712 0.0276,-0.3548 0.0927,-1.1854 -0.4713,-1.2285 -0.5529,-0.043 -0.6177,0.7874 -0.6449,1.1424 -0.0303,0.384 -0.0947,1.2143 0.4589,1.2573zm0.2301 -2.9692l0 0c0.6797,0.0529 1.2186,0.5251 1.1159,1.852 -0.1051,1.3554 -0.7107,1.7384 -1.3901,1.6858 -0.6704,-0.0518 -1.2088,-0.524 -1.1046,-1.8803 0.1042,-1.3266 0.7087,-1.7095 1.3788,-1.6575z"/>
   <path id="_42708584" class="fil1" d="M29.86 3.5666l-0.0144 -0.0044 -1.1638 0.9085 0.8647 0.2383 0.3135 -1.1424zm-0.4651 1.6915l0 0 -1.389 -0.3819 0.1681 -0.6101 1.9534 -1.5252 0.5953 0.1637 -0.543 1.9782 0.4369 0.1205 -0.152 0.5494 -0.4361 -0.1203 -0.2084 0.7617 -0.6332 -0.1745 0.208 -0.7615z"/>
   <polygon id="_42663264" class="fil1" points="9.1277,30.2173 10.0186,30.188 10.1302,33.4939 11.8278,33.4405 11.8542,34.1905 9.2655,34.2746 "/>
   <path id="_42664224" class="fil1" d="M14.2408 32.6988c-0.0178,-0.4158 -0.163,-0.6529 -0.5521,-0.7076 -0.5059,-0.0682 -0.7057,0.3052 -0.7478,0.5305l1.2999 0.1771zm-1.3695 0.3297l0 0c-0.0463,0.5099 0.1694,0.7745 0.6145,0.8354 0.3207,0.0441 0.6058,-0.1181 0.6814,-0.2911l0.7038 0.0961c-0.3188,0.6563 -0.8373,0.8837 -1.4956,0.7931 -0.9173,-0.1244 -1.3991,-0.8344 -1.2761,-1.7346 0.1189,-0.8733 0.8122,-1.4569 1.6957,-1.3347 0.9898,0.1348 1.3535,1.0346 1.1749,1.9224l-2.0986 -0.2866z"/>
   <polygon id="_42666560" class="fil1" points="16.8148,35.1296 15.9481,34.8982 15.7315,31.7993 16.5486,32.0163 16.6318,34.1154 16.6423,34.1185 17.7563,32.3384 18.5294,32.5451 "/>
   <path id="_42667728" class="fil1" d="M20.6772 34.3766c0.0381,-0.4134 -0.0745,-0.6698 -0.4513,-0.7742 -0.4921,-0.1367 -0.7414,0.2068 -0.8128,0.4228l1.2641 0.3514zm-1.4011 0.1412l0 0c-0.1145,0.4996 0.0634,0.791 0.4968,0.9109 0.3111,0.0865 0.6163,-0.0358 0.714,-0.1957l0.6838 0.1895c-0.4039,0.607 -0.9489,0.7627 -1.5883,0.585 -0.8921,-0.2474 -1.2751,-1.0143 -1.031,-1.8921 0.2357,-0.8488 1.0005,-1.3325 1.8589,-1.0941 0.9634,0.2673 1.2033,1.2092 0.9065,2.0643l-2.0407 -0.5678z"/>
   <path id="_42595720" class="fil1" d="M22.4382 33.6204l0.7574 0.1212 -0.0863 0.5392 0.0126 0c0.2029,-0.3411 0.6363,-0.5309 1.0225,-0.4696 0.0567,0.0086 0.1219,0.0317 0.1691,0.0568l-0.1166 0.7404c-0.0704,-0.0286 -0.1872,-0.0579 -0.282,-0.0727 -0.5838,-0.094 -0.8519,0.2953 -0.9339,0.8058l-0.2072 1.3095 -0.7964 -0.1271 0.4608 -2.9035z"/>
   <polygon id="_42597064" class="fil1" points="24.847,32.8597 25.6515,32.8176 25.7662,34.9932 26.7253,33.8839 27.6783,33.8343 26.6285,34.9708 27.9563,36.7623 26.9813,36.8143 26.1073,35.5448 25.8103,35.8621 25.8641,36.8722 25.0594,36.9142 "/>
   <path id="_42598320" class="fil1" d="M31.6536 35.8642l-0.7438 0.1874 -0.0999 -0.3983 -0.0156 0.0055c-0.1188,0.3686 -0.422,0.6098 -0.7524,0.6928 -0.8319,0.2088 -1.1578,-0.2074 -1.3349,-0.9143l-0.4407 -1.7525 0.7827 -0.1971 0.4038 1.6106c0.1168,0.4685 0.3139,0.6659 0.6777,0.575 0.4227,-0.1075 0.546,-0.3897 0.4006,-0.9691l-0.3755 -1.4945 0.7827 -0.1967 0.7153 2.8512z"/>
   <path id="_42599416" class="fil1" d="M32.8749 34.4916c0.1009,0.337 0.4237,0.3928 0.73,0.3056 0.2239,-0.062 0.4836,-0.2311 0.4058,-0.5047 -0.0662,-0.2349 -0.4121,-0.2253 -1.0036,-0.1874 -0.475,0.0282 -0.9687,-0.0031 -1.1096,-0.5006 -0.204,-0.7221 0.3662,-1.0848 0.9732,-1.2575 0.6163,-0.1746 1.243,-0.1284 1.5,0.5492l-0.7366 0.2091c-0.1081,-0.2949 -0.3596,-0.3117 -0.6384,-0.2315 -0.1746,0.0486 -0.4226,0.1547 -0.3575,0.3845 0.0789,0.279 0.5257,0.1926 0.9983,0.1716 0.4837,-0.0252 0.9719,0.0137 1.1211,0.5395 0.2105,0.7427 -0.3659,1.1668 -1.0108,1.3501 -0.6553,0.1853 -1.3646,0.1199 -1.6096,-0.6195l0.7377 -0.2084z"/>
   <path id="_42601616" class="fil1" d="M37.2349 32.6144c-0.1419,-0.3893 -0.3538,-0.5716 -0.7386,-0.5051 -0.505,0.0872 -0.5818,0.5051 -0.5543,0.7304l1.2929 -0.2253zm-1.2057 0.73l0 0c0.1109,0.5006 0.3969,0.6869 0.8385,0.6101 0.3187,-0.0551 0.5416,-0.2963 0.5605,-0.4847l0.7007 -0.1213c-0.105,0.7228 -0.5312,1.0966 -1.1857,1.2103 -0.912,0.1585 -1.5858,-0.3703 -1.7405,-1.2681 -0.1516,-0.8678 0.3335,-1.6323 1.2116,-1.7853 0.9846,-0.1702 1.6044,0.5764 1.7033,1.4769l-2.0884 0.3621z"/>
   <path id="_42603576" class="fil1" d="M38.922 31.2539l0.7655 0.019 -0.0103 0.4096 0.0179 0c0.2126,-0.3252 0.5681,-0.4751 0.9078,-0.4665 0.8571,0.021 1.0614,0.5085 1.0435,1.2365l-0.0444 1.8073 -0.8055 -0.019 0.0399 -1.6602c0.0128,-0.4833 -0.1229,-0.7265 -0.4988,-0.7351 -0.4372,-0.0107 -0.6301,0.2297 -0.6446,0.8271l-0.0368 1.54 -0.8069 -0.02 0.0727 -2.9387z"/>
  </g>
  <g id="_42605320">
   <path id="_42605480" class="fil3" d="M37.8999 19.4999c0,6.8485 -5.5515,12.4 -12.4,12.4 -6.8482,0 -12.3998,-5.5515 -12.3998,-12.4 0,-6.8483 5.5516,-12.3999 12.3998,-12.3999 6.8485,0 12.4,5.5516 12.4,12.3999z"/>
   <path id="_42606760" class="fil1" d="M25.4968 31.2949c6.5175,0 11.8002,-5.2906 11.8002,-11.8144 0,-6.5271 -5.2827,-11.8172 -11.8002,-11.8172 -6.5171,0 -11.7986,5.2901 -11.7986,11.8172 0,6.5238 5.2815,11.8144 11.7986,11.8144zm-12.6234 -11.8144l0 0c0,-6.9822 5.6519,-12.6413 12.6234,-12.6413 6.9722,0 12.6239,5.6591 12.6239,12.6413 0,6.9789 -5.6517,12.6392 -12.6239,12.6392 -6.9715,0 -12.6234,-5.6603 -12.6234,-12.6392z"/>
   <path id="_42587872" class="fil1" d="M24.7418 15.4749l1.5116 0 -0.7597 -1.5441 -0.7519 1.5441zm-1.6893 1.5294l0 0 1.8775 -3.9531 1.1077 0 1.9334 3.9579 -0.9826 0 -0.3165 -0.6594 -2.3269 0 -0.3511 0.6546 -0.9415 0z"/>
   <polygon id="_42589152" class="fil1" points="24.2905,22.8803 27.3723,22.8803 27.3723,22.0083 23.4195,22.0083 23.4195,25.9602 27.3682,25.9602 27.3682,25.0924 24.2758,25.0924 24.2758,24.4213 27.3703,24.4213 27.3703,23.5514 24.2905,23.5514 "/>
   <path id="_42590168" class="fil1" d="M26.4194 10.9568l-2.13 0 0 0.6821 2.1228 0c0.4637,0 0.4771,-0.6821 0.0072,-0.6821zm-0.145 -1.5251l0 0 -1.9914 0 0 0.6538 2.0083 0c0.4258,0 0.4141,-0.6538 -0.0169,-0.6538zm1.3136 1.8954l0 0c0,0.6495 -0.5374,1.1829 -1.0887,1.1829l-3.0872 0 0 -3.9562 2.9746 0c0.5429,0 1.0855,0.3302 1.0855,1.1929 0,0.2038 -0.1123,0.5834 -0.3248,0.7767 0.2515,0.1843 0.4406,0.5026 0.4406,0.8037z"/>
   <path id="_42670648" class="fil1" d="M17.6226 19.8954l-2.2405 0 0 0.6803 2.2333 0c0.4649,0 0.4785,-0.6803 0.0072,-0.6803zm-0.1452 -1.5266l0 0 -2.1004 0 0 0.6535 2.1175 0c0.427,0 0.4142,-0.6535 -0.0171,-0.6535zm1.3138 1.8965l0 0c0,0.6489 -0.5374,1.1821 -1.0886,1.1821l-3.1966 0 0 -3.9565 3.0851 0c0.5418,0 1.0835,0.3311 1.0835,1.1939 0,0.2028 -0.1104,0.5831 -0.324,0.7767 0.2525,0.1842 0.4406,0.5023 0.4406,0.8038z"/>
   <path id="_42672672" class="fil1" d="M20.6078 19.9154l1.5117 0 -0.7595 -1.5444 -0.7522 1.5444zm-1.6891 1.5279l0 0 1.8776 -3.9512 1.1075 0 1.9333 3.9553 -0.9824 0 -0.3154 -0.6588 -2.3268 0 -0.3514 0.6547 -0.9424 0z"/>
   <path id="_42674200" class="fil1" d="M35.1817 18.3603l-1.8083 0 0 0.7767 1.8231 0c0.5226,0 0.5226,-0.7767 -0.0148,-0.7767zm1.2747 0.3828l0 0c0.001,0.6532 -0.42,1.2493 -1.0422,1.2517l1.056 1.4506 -1.078 0.0048 -1.0363 -1.4333 -0.9825 0 0 1.4275 -0.8634 0 0 -3.9512 2.8977 0c0.6246,0 1.0476,0.5466 1.0487,1.2499z"/>
   <polygon id="_42675968" class="fil1" points="22.7674,17.4942 23.9781,17.4942 25.3867,19.1024 26.7991,17.4942 28.0162,17.4942 25.8227,19.9154 25.8227,21.4468 24.9512,21.4468 24.9512,19.912 "/>
   <polygon id="_42677152" class="fil1" points="29.0146,18.3636 31.6484,18.3636 31.6484,17.4921 28.1423,17.4921 28.1423,21.4433 31.6432,21.4433 31.6432,20.5757 29.0008,20.5757 29.0008,19.9047 31.6463,19.9047 31.6463,19.0338 29.0146,19.0338 "/>
   <path id="_42677816" class="fil1" d="M26.2027 27.382l-1.9174 0 0 0.7772 1.9312 0c0.5237,0 0.5237,-0.7772 -0.0138,-0.7772zm1.2737 0.3834l0 0c0.001,0.6539 -0.4183,1.2513 -1.0422,1.2513l1.056 1.4524 -1.077 0.0042 -1.0362 -1.4335 -1.0917 0 0 1.4283 -0.8647 0 0 -3.9519 3.0081 0c0.6239,0 1.0466,0.5464 1.0477,1.2492z"/>
  </g>
 </g>
</svg>
